<?xml version="1.0" encoding="UTF-8"?>
<svg id="Capa_2" data-name="Capa 2" xmlns="http://www.w3.org/2000/svg" viewBox="0 0 359.32 244.77">
  <defs>
    <style>
      .cls-1 {
        fill: #262626;
      }
    </style>
  </defs>
  <path class="cls-1" d="M85.42,66.07c-.3-.8-.4-1.7-.2-2.5.3-1.8,2.4-4.8,5.9-8.3,2.4-2.3,15.9-12.9,27.5-24.1,10.6-10.4,18.3-22.4,21.1-23.9,11.3-6.2,18.7,31.4,31.3,46.5,9,10.8,8.4,4.5,6.7-1.8-1.6-5.8-2.4-11.7-2.5-17.6v-6c0-9.8,5.4-18.8,14.2-23.1,7.2-3.5,16.7-6.3,27.2-4.9,21.5,2.9,9,24.6,6.7,28.3-.3.4-.5.9-.7,1.3-2,4.1-11.1,24.7-14.1,44.5-.8,5.4-2.6,11.5-2.8,16.9-.4,7.4,10.6,8.4,11.5,1,.2-1.4.2-2.8.3-4,.1-4.3.5-8.6,1.3-12.9,2.6-15,8.9-45.6,19-56.2,13.5-14.2,75.4-16.8,85-11.8,9.7,4.9,6.3,14.8,5.3,18.5-.6,2.4,21.8,11.5,28.9,39.3,5.6,21.7,3.6,59.2-36.3,84.8-13,8.4-29.2,10.6-43.9,5.7-15.7-5.2-30.3-18.7-23-52.1,2.5-11.4,8.7-21.7,17.9-28.9,6.7-5.2,15.7-9.3,27.2-9.1,0,0,14.9,1,6.9,27.4-.6,2.1-.4,4.3.8,6.1,1.6,2.3,4.6,3.3,9.7-4.9,6.3-10,8.4-19.7,3.2-28.8-4.2-7.3-11.9-11.8-20.3-12.2-5.7-.3-13.3.1-21.2,2.9-12.8,4.5-24.5,13.7-34.8,48,0,0-13.3,45.1,4.8,101.7,4.1,12.9-1.5,27.1-13.6,33.3-.3.2-.7.3-1,.5-10.9,5.2-23.2,6.6-34.8,3.4-10.6-2.9-22.6-9.9-27-26.7-1.2-4.6-1.6-9.3-1.4-14,.6-14.5,2.9-62.3,10.2-97.9,0,0,1.7-8.9-2.3-4.9-1,1-1.7,2.3-2.1,3.7-2.7,9.3-18.8,55.5-70.1,61.8-20.5,2.5-40.5-8.4-48.8-27.3-.2-.4-.4-.9-.6-1.3,0,0-3.2-9.7,5-18.4,9.8-10.3,25.9-29.8,29.9-34.6,1.2-1.4,2.7-2.6,4.4-3.2.1,0,.3,0,.4-.1,3.3-1,6.8.5,8.7,3.4,3.2,5,13.1,19,24.4,17.6,0,0,18.2-2.7,13.1-23.5-1.1-4.7-3.4-9-6.5-12.7l-2.5-3c-2.1-2.6-5.7-3.4-8.8-2.1-10.9,4.6-35.7,14-39.1,6.1h0l-.1.1Z"/>
  <circle class="cls-1" cx="28.02" cy="127.37" r="21.9" transform="translate(-102.19 134.62) rotate(-80.78)"/>
</svg>