<svg width="26" height="18" viewBox="0 0 26 18" fill="none" xmlns="http://www.w3.org/2000/svg">
<path fill-rule="evenodd" clip-rule="evenodd" d="M7.52586 0.501487C8.22838 0.488561 8.9299 0.559939 9.61512 0.714066C10.192 0.838893 10.7398 1.07118 11.2293 1.39857C11.6813 1.72412 12.039 2.1618 12.2664 2.66766C12.5277 3.28971 12.6538 3.95936 12.6364 4.63295C12.6661 5.37256 12.4755 6.10447 12.0883 6.73748C11.6811 7.33533 11.1181 7.8128 10.4592 8.11924C11.3534 8.35815 12.1323 8.90539 12.6557 9.66256C13.1582 10.4648 13.4108 11.3962 13.3818 12.34C13.3984 13.0925 13.2414 13.8388 12.9228 14.5221C12.6283 15.1181 12.197 15.6376 11.6636 16.0389C11.1145 16.4357 10.4965 16.7293 9.84035 16.9051C9.15994 17.0917 8.45704 17.1853 7.75108 17.1836H0V0.501487H7.52586ZM7.07862 7.24873C7.6306 7.27128 8.17396 7.10752 8.61982 6.78425C8.83335 6.59586 8.99946 6.36058 9.10486 6.09722C9.21027 5.83386 9.25205 5.54972 9.22687 5.2675C9.24116 4.93788 9.17493 4.60971 9.03381 4.31089C8.91411 4.07298 8.72798 3.87413 8.49756 3.738C8.26417 3.58814 8.00196 3.48789 7.72749 3.44357C7.42968 3.3864 7.12664 3.3604 6.82336 3.36598H3.51142V7.26361H7.07862V7.24873ZM7.27167 14.351C7.60548 14.3555 7.93861 14.3198 8.26375 14.2447C8.56087 14.1797 8.84267 14.0588 9.09388 13.8886C9.33997 13.7185 9.5388 13.4897 9.67196 13.2232C9.82636 12.8835 9.8973 12.5123 9.87896 12.1402C9.91243 11.801 9.86711 11.4588 9.74645 11.1397C9.6258 10.8206 9.43302 10.5331 9.1829 10.2992C8.65275 9.91226 8.00306 9.72057 7.34567 9.75716H3.51142V14.351H7.27167Z" fill="#DA6A2D"/>
<path fill-rule="evenodd" clip-rule="evenodd" d="M18.383 14.2893C18.6586 14.5425 18.9832 14.7375 19.3372 14.8625C19.6912 14.9874 20.0672 15.0398 20.4422 15.0163C21.0367 15.0312 21.6197 14.852 22.1014 14.5062C22.4932 14.2537 22.7899 13.88 22.9454 13.4433H25.7458C25.4474 14.6867 24.7188 15.7871 23.6866 16.5533C22.6963 17.2047 21.5261 17.5345 20.3382 17.4971C19.4903 17.5082 18.6489 17.3502 17.8639 17.0327C17.1537 16.7392 16.5168 16.2955 15.9977 15.7327C15.4805 15.143 15.0832 14.4598 14.8276 13.7207C14.5407 12.8945 14.4002 12.0253 14.4125 11.1517C14.4073 10.2927 14.5524 9.43927 14.8415 8.62942C15.2299 7.49013 15.9725 6.50204 16.9627 5.80696C17.9529 5.11187 19.1398 4.74553 20.3532 4.7605C21.249 4.74194 22.1348 4.94971 22.9272 5.36422C23.6435 5.75345 24.2614 6.29856 24.7344 6.95856C25.2183 7.65109 25.5651 8.42836 25.7565 9.24909C25.9664 10.1304 26.0412 11.038 25.9785 11.9414H17.6376C17.57 12.7902 17.8372 13.6318 18.383 14.2893ZM22.0424 7.94492C21.809 7.71355 21.5282 7.53445 21.2191 7.41967C20.9099 7.30489 20.5796 7.25711 20.2502 7.27955C19.8133 7.26304 19.3795 7.35898 18.9911 7.55803C18.6832 7.72602 18.4114 7.95205 18.191 8.2234C17.9957 8.47781 17.8502 8.76622 17.762 9.07372C17.6825 9.33016 17.6328 9.59477 17.614 9.86238H22.7803C22.7353 9.16475 22.4788 8.49683 22.0445 7.94598L22.0424 7.94492Z" fill="#DA6A2D"/>
<path d="M16.9479 1.61537H23.4216V3.25542H16.9479V1.61537Z" fill="#DA6A2D"/>
</svg>
