<svg width="24" height="25" viewBox="0 0 24 25" fill="none" xmlns="http://www.w3.org/2000/svg">
<g clip-path="url(#clip0_1155_2876)">
<path fill-rule="evenodd" clip-rule="evenodd" d="M12.0099 0.5C5.36875 0.5 0 5.90833 0 12.5992C0 17.9475 3.43994 22.4748 8.21205 24.0771C8.80869 24.1976 9.02724 23.8168 9.02724 23.4965C9.02724 23.216 9.00757 22.2545 9.00757 21.2527C5.6667 21.974 4.97099 19.8104 4.97099 19.8104C4.43409 18.4082 3.63858 18.0478 3.63858 18.0478C2.54511 17.3066 3.71823 17.3066 3.71823 17.3066C4.93117 17.3868 5.56763 18.5486 5.56763 18.5486C6.64118 20.3913 8.37111 19.8707 9.06706 19.5501C9.16638 18.7688 9.48473 18.228 9.82275 17.9276C7.15817 17.6471 4.35469 16.6055 4.35469 11.958C4.35469 10.6359 4.8316 9.55428 5.58729 8.71304C5.46807 8.41263 5.0504 7.17043 5.70677 5.50787C5.70677 5.50787 6.72083 5.1873 9.00732 6.74981C9.98625 6.48497 10.9958 6.35024 12.0099 6.34911C13.024 6.34911 14.0577 6.48948 15.0123 6.74981C17.299 5.1873 18.3131 5.50787 18.3131 5.50787C18.9695 7.17043 18.5515 8.41263 18.4323 8.71304C19.2079 9.55428 19.6652 10.6359 19.6652 11.958C19.6652 16.6055 16.8617 17.6269 14.1772 17.9276C14.6148 18.3081 14.9924 19.0292 14.9924 20.1711C14.9924 21.7936 14.9727 23.0957 14.9727 23.4962C14.9727 23.8168 15.1915 24.1976 15.7879 24.0774C20.56 22.4745 23.9999 17.9475 23.9999 12.5992C24.0196 5.90833 18.6312 0.5 12.0099 0.5Z" fill="#DA6A2D"/>
</g>
<defs>
<clipPath id="clip0_1155_2876">
<rect width="24" height="24" fill="white" transform="translate(0 0.5)"/>
</clipPath>
</defs>
</svg>
