<svg width="37.8" height="43.2" viewBox="0 0 42 48" fill="none" xmlns="http://www.w3.org/2000/svg">
<path d="M32.3843 22.2471C32.1775 22.148 31.9675 22.0526 31.7547 21.9613C31.3842 15.1346 27.654 11.2262 21.3905 11.1862C21.3621 11.1861 21.3339 11.1861 21.3055 11.1861C17.5591 11.1861 14.4433 12.7852 12.5255 15.6952L15.9702 18.0582C17.4029 15.8846 19.6513 15.4212 21.3071 15.4212C21.3263 15.4212 21.3455 15.4212 21.3644 15.4214C23.4268 15.4345 24.983 16.0342 25.9902 17.2035C26.7232 18.0548 27.2135 19.2313 27.4562 20.716C25.6277 20.4052 23.6502 20.3096 21.5362 20.4308C15.5812 20.7738 11.7528 24.247 12.0099 29.073C12.1404 31.521 13.3599 33.627 15.4438 35.0028C17.2056 36.1657 19.4748 36.7345 21.8331 36.6058C24.9475 36.435 27.3907 35.2467 29.0952 33.074C30.3897 31.424 31.2085 29.2857 31.57 26.5915C33.0542 27.4872 34.1543 28.666 34.7617 30.083C35.7948 32.4917 35.855 36.45 32.6253 39.677C29.7955 42.504 26.394 43.727 21.2534 43.7648C15.551 43.7225 11.2384 41.8937 8.43452 38.3293C5.80887 34.9915 4.45192 30.1705 4.4013 24C4.45192 17.8295 5.80887 13.0084 8.43452 9.67068C11.2384 6.10623 15.551 4.2775 21.2533 4.23513C26.997 4.27782 31.3848 6.11535 34.296 9.697C35.7235 11.4534 36.7998 13.6622 37.5093 16.2376L41.546 15.1606C40.686 11.9906 39.3327 9.25893 37.4912 6.9935C33.759 2.40167 28.3005 0.048787 21.2674 0H21.2392C14.2204 0.0486175 8.82302 2.41045 5.19707 7.01982C1.97047 11.1216 0.3061 16.8289 0.250175 23.9831L0.25 24L0.250175 24.0169C0.3061 31.171 1.97047 36.8785 5.19707 40.9803C8.82302 45.5895 14.2204 47.9515 21.2392 48H21.2674C27.5075 47.9567 31.906 46.323 35.5295 42.7028C40.2702 37.9665 40.1275 32.0298 38.565 28.3853C37.444 25.7717 35.3068 23.649 32.3843 22.2471ZM21.6101 32.3768C19.0001 32.5238 16.2886 31.3523 16.1549 28.843C16.0558 26.9825 17.479 24.9065 21.7703 24.6592C22.2617 24.6308 22.744 24.617 23.2178 24.617C24.7765 24.617 26.2347 24.7684 27.5605 25.0583C27.066 31.2337 24.1655 32.2365 21.6101 32.3768Z" fill="#DA6A2D"/>
</svg>
