<svg id="Capa_2" xmlns="http://www.w3.org/2000/svg" viewBox="0 0 316.31 454.54"><path d="M246.93,77.05c1.35-1.21,2.8-2.22,4.37-2.95,28.4-13.34,16.64,55.77,16.61,73.11,0,2.69.03,5.51,1.01,7.88,2.04,4.94,7.09,5.88,11.4,5.94,8.48.12,16.98-.92,25.3-3.1,2.25-.59,4.87-1.14,6.6.82,1.23,1.39,1.6,3.65,1.88,5.74,3.1,23.51,3,47.7-.52,71.12-.2,1.34-.45,2.76-1.22,3.69-.98,1.18-2.47,1.16-3.8,1.08-10.75-.63-21.52-.69-32.27-.2-1.65.08-3.44.24-4.65,1.69-1.42,1.7-1.52,4.52-1.53,7.03-.11,43.22,2.54,93.22-18.09,130.2-16.92,32.3-43.74,54.99-72.29,65.93-66.75,25.6-160,1.85-177.37-100.03-7.02-41.19,1.9-88.1,25.49-117.67,3.63-4.55,7.71-9.01,9.37-15.21,3.73-13.88-5.94-26.97-12.82-38.63C-23.81,91.9,45.11,6.17,107.66,1.38,125.08.05,179.7-5.99,185.48,24.28c.97,5.1.44,10.47-.26,15.66-1.89,14.15-5.4,53.53-19.86,55.3-5.37.65-10.55-2.26-15.61-4.69-14.03-6.76-33.16-11.89-47.06-2.42-9.11,6.21-15.18,19.36-15.13,32.76.13,31.12,22.75,37.51,41.82,37.61,33.76.18,60.78,12.3,83.88-27.24,7.84-13.43,15.69-26.85,23.53-40.28,2.97-5.09,6.14-10.36,10.12-13.92ZM132.34,366.23c21.71.44,44.01-14.11,53.84-39.37,7.62-19.6,9.28-42.22,9.1-64.19-.28-34.05-18.47-25.95-37.56-27.25-32.65-2.23-70.28,7.11-75.83,57.66-2.71,24.72,5.42,48.47,21.6,62.16,8.59,7.26,18.66,10.78,28.85,10.99Z"/></svg>