<svg width="46" height="46" viewBox="0 0 46 46" fill="none" xmlns="http://www.w3.org/2000/svg">
<path d="M34 10C38.7714 10 43 13.9067 43 19" stroke="#DA6A2D" stroke-width="3" stroke-linecap="round" stroke-linejoin="round"/>
<path d="M34.1406 20C36.7116 17.2273 36.571 12.7727 34 10" stroke="#DA6A2D" stroke-width="3" stroke-linecap="round" stroke-linejoin="round"/>
<path d="M32.3887 1.64844C35.2267 3.28694 35.6376 7.16288 33.9991 10.0008" stroke="#DA6A2D" stroke-width="3" stroke-linecap="round" stroke-linejoin="round"/>
<path d="M34 10C30.9954 5.48052 25.6438 4.60437 22 8.33102" stroke="#DA6A2D" stroke-width="3" stroke-linecap="round" stroke-linejoin="round"/>
<path d="M18 27C18 17.6112 25.6112 10 35 10C29.9926 10 25.9333 17.6112 25.9333 27" stroke="#DA6A2D" stroke-width="3" stroke-linecap="round" stroke-linejoin="round"/>
<path d="M2 43.9989C3.88976 43.9989 5.77952 43.4425 7.42006 42.3298C8.35629 41.6947 9.6437 41.6947 10.5799 42.3298C12.2205 43.4425 14.1102 43.9989 16 43.9989C17.8898 43.9989 19.7795 43.4425 21.4201 42.3298C22.3563 41.6947 23.6437 41.6947 24.5799 42.3298C26.2205 43.4425 28.1102 43.9989 30 43.9989C31.8898 43.9989 33.7795 43.4425 35.4201 42.3298C36.3563 41.6947 37.6437 41.6947 38.5799 42.3298C40.2205 43.4425 42.1102 43.9989 44 43.9989" stroke="#DA6A2D" stroke-width="3" stroke-linecap="round" stroke-linejoin="round"/>
<path d="M6 37C7.3678 31.3246 14.4584 27 23 27C31.5416 27 38.6322 31.3246 40 37" stroke="#341116" stroke-width="3" stroke-linecap="round" stroke-linejoin="round"/>
</svg>
