<svg width="46" height="46" viewBox="0 0 46 46" fill="none" xmlns="http://www.w3.org/2000/svg">
<path d="M27.3286 31.4494C25.7346 32.4245 23.819 32.7978 21.9714 32.7978C16.7884 32.7978 13.2286 29.104 13.2286 23.9438C13.2286 17.6973 17.7737 12.9326 24.0714 12.9326C26.6107 12.9326 29.0956 13.5576 31.1857 15.0449C32.4229 15.9431 33.1031 17.4406 32.8143 18.9551L31.5 27.5C35.4113 29.5508 38.5 25.5 38.5 20.3933C38.5 13.1708 32.9714 7.45714 23.9857 7.45714C15 7.45714 7.5 15.1161 7.5 23.6292C7.5 31.0788 13.2286 38.5 21.7143 38.5C23.0695 38.5 24.3915 38.3635 25.7202 38.1876C26.5144 38.0825 27.3349 38.4402 27.5794 39.2031C28.0256 40.5951 27.842 42.0942 26.4286 43C25.4571 43.6592 23.7714 44 21.2 44C10.1275 44 2 34.6597 2 23.6292C2 11.276 12.0359 2 23.9857 2C34.2988 2 44 9.26 44 20.3933C44 27.2997 40.3602 33.0225 32.9857 33.0225C31.0148 33.0225 28.9905 32.5312 27.3286 31.4494ZM20.4714 23.8989C20.4714 25.6457 21.3361 27.0449 23.2143 27.0449C24.0429 27.0449 24.7571 26.8202 25.3571 26.3708L26 19.3596C25.4386 18.9916 24.6816 18.9101 24.0286 18.9101C23.0286 18.9101 22.1857 19.3446 21.5 20.2135C20.8143 21.0524 20.4714 22.2809 20.4714 23.8989Z" stroke="#DA6A2D" stroke-width="3" stroke-linejoin="round"/>
</svg>
