<?xml version="1.0" encoding="UTF-8"?><svg id="Capa_2" xmlns="http://www.w3.org/2000/svg" viewBox="0 0 571.58 396.3"><defs><style>.cls-1{fill:#13110c;}</style></defs><g id="Capa_2-2"><path class="cls-1" d="M128.48,107.04c-.55-1.27-.62-2.69-.38-4.05.53-2.9,3.96-7.85,9.61-13.41,3.83-3.77,25.75-20.86,44.46-39.09,17.24-16.81,29.63-36.19,34.22-38.73,18.22-10.07,30.2,50.78,50.6,75.24,14.59,17.48,13.61,7.24,10.85-2.84-2.55-9.32-3.95-18.91-4.01-28.57l-.06-9.65c-.1-15.84,8.75-30.51,23-37.43,11.68-5.67,27-10.19,44.08-7.9,34.74,4.66,14.56,39.85,10.9,45.75-.44.71-.83,1.42-1.2,2.16-3.3,6.64-17.9,39.96-22.87,72.09-1.34,8.7-4.15,18.69-4.6,27.31-.62,11.96,17.12,13.54,18.55,1.65.27-2.27.4-4.48.45-6.44.18-6.99.84-13.95,2.03-20.84,4.2-24.28,14.46-73.84,30.69-90.96,21.82-23.02,122-27.13,137.65-19.18,15.65,7.95,10.19,23.94,8.59,29.88-1.05,3.9,35.22,18.57,46.83,63.62,9.04,35.09,5.75,95.9-58.72,137.3-21.09,13.55-47.24,17.23-71.03,9.3-25.37-8.45-49.11-30.23-37.28-84.35,4.03-18.45,14.01-35.2,28.96-46.73,10.81-8.34,25.4-15.13,44.1-14.76,0,0,24.18,1.63,11.14,44.41-1.01,3.33-.62,7,1.37,9.85,2.57,3.67,7.39,5.3,15.76-8.01,10.16-16.17,13.52-31.94,5.12-46.56-6.76-11.76-19.29-19.03-32.84-19.71-9.24-.46-21.52.24-34.31,4.74-20.67,7.28-39.63,22.11-56.33,77.67,0,0-21.46,73.07,7.74,164.58,6.68,20.93-2.5,43.88-22.06,53.86-.55.28-1.11.56-1.68.83-17.58,8.44-37.52,10.61-56.34,5.5-17.13-4.66-36.51-16.06-43.78-43.23-1.97-7.37-2.66-15.01-2.33-22.64,1.02-23.4,4.65-100.78,16.57-158.51,0,0,2.73-14.47-3.66-7.87-1.62,1.68-2.76,3.76-3.41,6-4.41,15.06-30.39,89.88-113.45,100.12-33.18,4.09-65.53-13.55-79.03-44.14-.31-.71-.62-1.43-.93-2.16,0,0-5.11-15.78,8.06-29.72,15.82-16.75,41.93-48.22,48.33-55.97,1.91-2.31,4.35-4.16,7.19-5.13.22-.07.44-.15.67-.21,5.35-1.56,11.08.79,14.05,5.51,5.1,8.07,21.2,30.81,39.57,28.45,0,0,29.41-4.38,21.2-38.11-1.84-7.56-5.47-14.57-10.47-20.54l-4.08-4.87c-3.47-4.14-9.23-5.54-14.21-3.45-17.63,7.43-57.73,22.65-63.29,9.93h0Z"/><circle class="cls-1" cx="35.46" cy="206.22" r="35.46"/></g></svg>