<svg width="46" height="46" viewBox="0 0 46 46" fill="none" xmlns="http://www.w3.org/2000/svg">
<path d="M15 29C18.5 34.3333 27.5 34.3333 31 29" stroke="#DA6A2D" stroke-width="3" stroke-linecap="round" stroke-linejoin="round"/>
<path d="M16 16V18" stroke="#DA6A2D" stroke-width="3" stroke-linecap="round" stroke-linejoin="round"/>
<path d="M30 16V18" stroke="#DA6A2D" stroke-width="3" stroke-linecap="round" stroke-linejoin="round"/>
<path d="M44 23C44 11.402 34.598 2 23 2C11.402 2 2 11.402 2 23C2 26.8016 3.01016 30.3673 4.77671 33.4432C3.86778 35.8196 3.00937 38.5804 2.44577 41.3392C2.17698 42.6549 3.3363 43.7682 4.64304 43.4588C7.28562 42.833 9.9682 41.9655 12.3244 41.0878C15.4525 42.9381 19.1023 44 23 44C34.598 44 44 34.598 44 23Z" stroke="#341116" stroke-width="3" stroke-linejoin="round"/>
</svg>
