<svg id="Capa_2" xmlns="http://www.w3.org/2000/svg" viewBox="0 0 233.11 491.1">
<path class="cls-1" d="M222.96,203.79c-6,13.74-14.67,26.28-25.31,36.84-16.03,15.92-38.61,20.05-43.66,45.04-5.15,25.49,14.31,67.32-2.2,89.66-8.2,11.09-44.79,7.21-56.46,6.04-23.96-2.39-29.65-18.79-29.03-40.03l2.6-89.14c.22-7.42.46-14.98,3.02-21.95,7.14-19.39,33.01-19.85,47.28-32.27,16.03-13.95,20.42-34.41,17.85-54.86-3.72-29.65-31.46-39.81-58.48-37.04-17.04,1.75-40.27,11.73-57.19,8.1-9.01-1.93-16.24-7.73-19.79-20.68-5.44-19.85,3.15-49.26,24.78-55.69,8.62-2.56,16.88-4.58,24.77-6.05,7.89-1.46,15.69-2.56,23.4-3.3,7.71-.73,15.78-1.1,24.22-1.1,44.41,0,77.81,10.1,100.2,30.28,36.24,32.66,42.58,103.65,24,146.18Z"/>
<path class="cls-1" d="M95.64,408.05c-28.35,16.35-41.97,45.84-30.42,65.86,11.55,20.02,43.89,22.99,72.24,6.64,28.35-16.35,41.97-45.84,30.42-65.86-11.55-20.02-43.89-22.99-72.24-6.64Z"/>
<path class="cls-1" d="M169.71,46.33c-1.29,47.44-22.32,218.23-51.75,315.85-1.21,4-2.97,7.83-5.4,11.23-5.46,7.65-15.46,15.43-25.3-9.16-14.49-36.21-9.46-206.45-23.57-311.33h-.01c-.13-.95-.27-1.87-.43-2.8C62.08,43.57,56.75,1.57,111.96,0c0,0,59.05-1.75,57.75,46.32Z"/>
<path class="cls-1" d="M97.76,412.4c-24.93,14.38-36.9,40.31-26.75,57.92,10.16,17.6,38.6,20.22,63.53,5.84,24.93-14.38,36.9-40.31,26.75-57.92-10.16-17.6-38.6-20.22-63.53-5.84Z"/>
</svg>