<?xml version="1.0" encoding="UTF-8"?>
<svg id="Capa_1" data-name="Capa 1" xmlns="http://www.w3.org/2000/svg" viewBox="0 0 318.48 319.19">
  <defs>
    <style>
      .cls-1 {
        fill: #fff;
      }
    </style>
  </defs>
  <path class="cls-1" d="M179.85,238.32c-4.24,4.31-7.82,12.74-7.81,18.82.04,16.79,17.84,21.31,13.2,41.59-7.48,32.66-60.38,18.4-82.19,10.25C-21.32,262.52-36.81,91.45,76.81,22.62c75.36-45.65,185.92-20.32,227.43,58.98,33.07,63.17,8.08,144.06-69.64,148.97-16.62,1.05-42.47-4.72-54.75,7.76ZM155.45,63.84c-29.35,3.96-25.33,51.25,7.21,47.63,30.1-3.35,26.18-52.13-7.21-47.63ZM83.59,111.75c-29.58,3.99-25.02,51.46,7.21,47.63,30.3-3.6,26-52.11-7.21-47.63ZM227.31,111.75c-29.58,3.99-25.02,51.46,7.21,47.63,30.3-3.6,26-52.11-7.21-47.63Z"/>
</svg>
