<svg width="46" height="46" viewBox="0 0 46 46" fill="none" xmlns="http://www.w3.org/2000/svg">
<path d="M23.0001 44C13 44 2 32.8824 2 18.5789C2 15.5789 2.00011 2 23.0001 2C44 2 44 15.5789 44 18.5789C44 32.8824 33.0001 44 23.0001 44Z" stroke="#341116" stroke-width="3" stroke-linejoin="round"/>
<path d="M29 33C29 33 27 36 23 36C19 36 17 33 17 33" stroke="#DA6A2D" stroke-width="3" stroke-linecap="round" stroke-linejoin="round"/>
<path d="M20.5 23.4709C20.5 24.2961 19.8544 24.9687 19.0295 24.992C18.8419 24.9974 18.6509 25.0001 18.4565 25.0001C7.5 25.0001 7.5 16.4239 7.5 14.5292C7.5 13.704 8.14563 13.0314 8.97053 13.008C9.1581 13.0027 9.3491 13 9.5435 13C20.5 13 20.5 21.5761 20.5 23.4709Z" stroke="#DA6A2D" stroke-width="3" stroke-linejoin="round"/>
<path d="M25.5 23.4709C25.5 24.2961 26.1456 24.9687 26.9705 24.992C27.1581 24.9974 27.3491 25.0001 27.5436 25.0001C38.5 25.0001 38.5 16.4239 38.5 14.5292C38.5 13.704 37.8544 13.0314 37.0295 13.008C36.8419 13.0027 36.6509 13 36.4565 13C25.5001 13 25.5 21.5761 25.5 23.4709Z" stroke="#DA6A2D" stroke-width="3" stroke-linejoin="round"/>
</svg>
