<svg width="46" height="46" viewBox="0 0 46 46" fill="none" xmlns="http://www.w3.org/2000/svg">
<path d="M26.9986 34.0039L27.677 37.3961C27.864 38.331 28.6848 39.0039 29.6382 39.0039H30.5392C31.9692 39.0039 33.2005 40.0133 33.4809 41.4156L33.5201 41.6117C33.7676 42.8493 32.8211 44.0039 31.559 44.0039H14.4382C13.1761 44.0039 12.2295 42.8493 12.477 41.6117L12.5162 41.4156C12.7967 40.0133 14.0279 39.0039 15.458 39.0039H16.359C17.3123 39.0039 18.1332 38.331 18.3201 37.3961L18.9986 34.0039" stroke="#DA6A2D" stroke-width="3" stroke-linecap="round" stroke-linejoin="round"/>
<path d="M2.44433 29.0464C2.67922 31.5742 4.68395 33.4313 7.21773 33.5889C10.4434 33.7894 15.6059 34.002 23 34.002C30.394 34.002 35.5566 33.7894 38.7823 33.5889C41.316 33.4313 43.3208 31.5742 43.5557 29.0464C43.7858 26.5698 44 22.9387 44 18.002C44 13.0652 43.7858 9.4341 43.5557 6.9575C43.3208 4.42972 41.316 2.57258 38.7823 2.41504C35.5566 2.21448 30.3941 2.00195 23 2.00195C15.6059 2.00195 10.4434 2.21448 7.21773 2.41504C4.68396 2.57258 2.67922 4.42972 2.44433 6.9575C2.2142 9.4341 2 13.0652 2 18.002C2 22.9387 2.2142 26.5698 2.44433 29.0464Z" stroke="#341116" stroke-width="3" stroke-linejoin="round"/>
</svg>
