<?xml version="1.0" encoding="UTF-8"?><svg id="Capa_2" xmlns="http://www.w3.org/2000/svg" viewBox="0 0 280.17 280.17"><defs><style>.cls-1{fill:#ebcc7d;}.cls-2{fill:#fff;}.cls-3{fill:#ebe6e0;}</style></defs><g id="Capa_2-2"><path class="cls-1" d="M140.09,275.17c-74.49,0-135.08-60.6-135.08-135.08S65.6,5,140.09,5s135.09,60.6,135.09,135.09-60.6,135.08-135.09,135.08Z"/><path class="cls-3" d="M140.09,10c71.84,0,130.09,58.24,130.09,130.09s-58.24,130.09-130.09,130.09S10,211.93,10,140.09,68.24,10,140.09,10M140.09,0c-37.42,0-72.6,14.57-99.06,41.03C14.57,67.49,0,102.67,0,140.09s14.57,72.6,41.03,99.06c26.46,26.46,61.64,41.03,99.06,41.03s72.6-14.57,99.06-41.03c26.46-26.46,41.03-61.64,41.03-99.06s-14.57-72.6-41.03-99.06C212.68,14.57,177.5,0,140.09,0h0Z"/><path class="cls-3" d="M30.24,157.29c2.29,1.31,4.82,2.5,7.6,3.58,2.78,1.08,5.64,2,8.59,2.75,2.94.75,5.89,1.34,8.83,1.77,2.94.43,5.66.64,8.14.64,3.14,0,5.56-.34,7.26-1.03,1.7-.69,2.55-1.59,2.55-2.7,0-.98-.69-1.83-2.06-2.55-1.37-.72-3.17-1.41-5.4-2.06-2.22-.65-4.78-1.32-7.65-2.01-2.88-.69-5.81-1.5-8.78-2.45-2.98-.95-5.9-2.06-8.78-3.34-2.88-1.27-5.43-2.85-7.65-4.71-2.22-1.86-4.02-4.06-5.4-6.57-1.37-2.52-2.06-5.48-2.06-8.88s.79-6.29,2.35-9.08c1.57-2.78,3.86-5.2,6.87-7.26,3.01-2.06,6.69-3.68,11.04-4.86,4.35-1.18,9.3-1.77,14.86-1.77s10.61.46,14.77,1.37c4.15.92,7.6,1.93,10.35,3.04,3.2,1.37,5.95,2.88,8.24,4.51l-9.12,16.68c-1.77-.98-3.76-1.88-5.99-2.7-2.22-.82-4.51-1.5-6.87-2.06-2.35-.56-4.66-1-6.92-1.32-2.26-.33-4.33-.49-6.23-.49-3.08,0-5.53.36-7.36,1.08-1.83.72-2.75,1.73-2.75,3.04,0,.98.69,1.81,2.06,2.5,1.37.69,3.17,1.36,5.4,2.01,2.22.65,4.77,1.31,7.65,1.96,2.88.65,5.8,1.46,8.78,2.4,2.98.95,5.9,2.08,8.78,3.38,2.88,1.31,5.43,2.91,7.65,4.81,2.22,1.9,4.02,4.14,5.4,6.72,1.37,2.59,2.06,5.64,2.06,9.17,0,2.68-.65,5.36-1.96,8.05-1.31,2.68-3.34,5.1-6.08,7.26-2.75,2.16-6.26,3.91-10.55,5.25-4.29,1.34-9.4,2.01-15.36,2.01s-11.14-.44-15.94-1.32-8.98-1.88-12.51-2.99c-4.12-1.24-7.85-2.68-11.19-4.32l7.36-19.53Z"/><path class="cls-3" d="M130.03,159.35l-29.63-50.14h24.33l15.4,30.61h2.35l15.5-30.61h24.33l-29.53,50.04v23.55h-22.76v-23.45Z"/><path class="cls-3" d="M189.68,109.21h42.39c4.32,0,8.32.61,12.02,1.81,3.69,1.21,6.9,3.01,9.62,5.4,2.71,2.39,4.84,5.41,6.38,9.08,1.54,3.66,2.31,7.95,2.31,12.85s-.77,9.17-2.31,12.8c-1.54,3.63-3.66,6.66-6.38,9.08-2.72,2.42-5.92,4.22-9.62,5.4-3.7,1.18-7.7,1.77-12.02,1.77h-19.62v15.4h-22.76v-73.59ZM212.44,128.83v18.94h17.27c1.31,0,2.55-.15,3.73-.44s2.22-.8,3.14-1.52c.91-.72,1.63-1.68,2.16-2.89.52-1.21.78-2.7.78-4.46s-.26-3.25-.78-4.46c-.52-1.21-1.24-2.21-2.16-2.99-.92-.78-1.96-1.34-3.14-1.67-1.18-.33-2.42-.49-3.73-.49h-17.27Z"/><polygon points="93.51 153.79 99.09 142.05 95.93 137.18 95.75 137.1 111.79 103.37 116.39 105.67 118.67 100.87 123.27 103.16 125.56 98.37 134.76 102.96 137.04 98.16 150.85 105.04 153.13 100.24 162.34 104.84 171.47 85.64 176.07 87.94 178.35 83.14 187.69 87.79 190.01 94.89 189.99 94.93 195.75 103.74 179.8 137.28 190.17 142.46 195.91 151.3 193.57 156.24 189 165.83 184.4 163.54 182.12 168.34 177.52 166.04 172.95 175.64 168.35 173.34 163.78 182.94 159.18 180.64 154.62 190.24 150.02 187.95 145.45 197.54 143.17 202.34 101.74 181.68 97.01 179.32 91.27 170.48 96.85 158.74 93.69 153.87 93.51 153.79"/><polygon class="cls-2" points="148.69 183.9 153.29 186.19 157.86 176.6 162.46 178.89 167.02 169.3 171.63 171.59 176.19 162 180.79 164.29 183.08 159.49 187.68 161.79 192.53 151.57 188.17 144.84 175.87 138.71 192.37 104.01 186.6 95.2 179.68 87.19 177.4 91.98 172.79 89.69 163.67 108.88 154.46 104.29 152.18 109.09 138.37 102.2 136.09 107 126.88 102.41 124.6 107.21 120 104.91 117.71 109.71 113.11 107.42 99.18 136.72 102.47 141.78 96.94 153.41 100.22 158.47 94.65 170.21 99.02 176.94 141.85 198.29 148.69 183.9"/><path class="cls-2" d="M116.42,105.77l2.28-4.8,4.6,2.3,2.28-4.8,9.21,4.59,2.28-4.8,13.81,6.89,2.28-4.8,9.21,4.59,9.13-19.19,4.6,2.29,2.28-4.8,9.21,4.59-2.29,4.8,4.61,2.3-20.53,43.18,4.6,2.3,2.28-4.8,13.81,6.89-2.28,4.8-1.14,2.4-3.42,7.2-4.6-2.3-2.28,4.8-4.6-2.3-4.57,9.6-4.6-2.29-4.56,9.59-4.6-2.29-4.56,9.6-4.6-2.29-4.56,9.6-2.28,4.8-41.43-20.66-4.6-2.3,6.84-14.39-4.6-2.3,6.84-14.39-4.6-2.3,15.97-33.59,4.6,2.29Z"/><polygon points="157.93 150.21 162.53 152.5 189.91 94.92 185.31 92.63 157.93 150.21"/><polygon points="176.1 88.04 185.31 92.63 187.59 87.83 178.38 83.24 176.1 88.04"/><polygon points="150.97 128.93 155.57 131.22 176.1 88.04 171.5 85.74 150.97 128.93"/><polygon points="150.89 105.14 160.09 109.73 162.37 104.94 153.16 100.34 150.89 105.14"/><polygon points="137.15 122.04 141.76 124.34 148.6 109.94 144 107.65 137.15 122.04"/><polygon points="134.8 103.06 148.6 109.94 150.89 105.14 137.08 98.26 134.8 103.06"/><polygon points="121.07 119.94 125.67 122.24 132.51 107.85 127.91 105.56 121.07 119.94"/><polygon points="123.31 103.27 132.51 107.85 134.8 103.06 125.59 98.47 123.31 103.27"/><polygon points="116.42 105.77 121.02 108.06 123.31 103.27 118.7 100.97 116.42 105.77"/><polygon points="95.85 137.06 100.45 139.36 116.42 105.77 111.82 103.47 95.85 137.06"/><polygon points="93.61 153.75 98.21 156.04 105.05 141.65 100.45 139.36 93.61 153.75"/><polygon points="91.37 170.44 95.97 172.73 102.81 158.34 98.21 156.04 91.37 170.44"/><polygon points="95.97 172.73 137.4 193.39 139.68 188.59 98.25 167.94 95.97 172.73"/><polygon points="167.1 142.91 171.7 145.2 173.98 140.4 169.38 138.11 167.1 142.91"/><polygon points="173.98 140.4 187.79 147.29 190.07 142.49 176.26 135.6 173.98 140.4"/><polygon points="178.63 154.59 183.23 156.89 187.79 147.29 183.19 144.99 178.63 154.59"/><polygon points="171.74 157.09 176.34 159.39 178.63 154.59 174.02 152.3 171.74 157.09"/><polygon points="162.58 164.4 167.18 166.69 171.74 157.09 167.14 154.8 162.58 164.4"/><polygon points="153.41 171.7 158.01 173.99 162.58 164.4 157.97 162.1 153.41 171.7"/><polygon points="144.24 179 148.85 181.29 153.41 171.7 148.81 169.4 144.24 179"/><polygon points="135.08 186.3 139.68 188.59 144.24 179 139.64 176.7 135.08 186.3"/></g></svg>