<?xml version="1.0" encoding="UTF-8"?><svg id="Capa_2" xmlns="http://www.w3.org/2000/svg" xmlns:xlink="http://www.w3.org/1999/xlink" viewBox="0 0 340.6 95.34"><defs><style>.cls-1{fill:#ebe6e0;}.cls-2{fill:url(#Degradado_sin_nombre_590);}.cls-3{fill:#e6ebe0;}</style><linearGradient id="Degradado_sin_nombre_590" x1="-74.35" y1="-5.3" x2="451.01" y2="108.44" gradientUnits="userSpaceOnUse"><stop offset="0" stop-color="#ffcca3"/><stop offset=".38" stop-color="#ebcc7d"/><stop offset=".62" stop-color="#715d16" stop-opacity=".98"/><stop offset=".83" stop-color="#ffcca3" stop-opacity=".99"/><stop offset=".94" stop-color="#342a11" stop-opacity=".93"/></linearGradient></defs><g id="Capa_2-2"><path class="cls-2" d="M29.21,5h282.18c13.36,0,24.21,10.85,24.21,24.21v36.92c0,13.36-10.85,24.21-24.21,24.21H29.21c-13.36,0-24.21-10.85-24.21-24.21V29.21C5,15.85,15.85,5,29.21,5Z"/><path class="cls-3" d="M311.39,10c10.61,0,19.21,8.6,19.21,19.21v36.92c0,10.61-8.6,19.21-19.21,19.21H29.21c-10.61,0-19.21-8.6-19.21-19.21V29.21c0-10.61,8.6-19.21,19.21-19.21h282.18M311.39,0H29.21C13.1,0,0,13.1,0,29.21v36.92c0,16.11,13.1,29.21,29.21,29.21h282.18c16.11,0,29.21-13.1,29.21-29.21V29.21c0-16.11-13.1-29.21-29.21-29.21h0Z"/><path class="cls-1" d="M43.34,36.85h6.03l-2.26,14.3h10.4l-.81,5.2h-16.46l3.09-19.5Z"/><path class="cls-1" d="M62.19,36.85h16.61l-.83,5.2h-10.56l-.39,2.42h9.7l-.68,4.26h-9.7l-.39,2.42h10.58l-.83,5.2h-16.61l3.09-19.5Z"/><path class="cls-1" d="M86.37,42.05h-6.21l.83-5.2h18.46l-.83,5.2h-6.21l-2.26,14.3h-6.03l2.26-14.3Z"/><path class="cls-1" d="M101.22,39.56c.14-.88.54-1.59,1.2-2.13.66-.54,1.46-.81,2.39-.81s1.65.27,2.13.81c.48.54.66,1.25.52,2.13-.05.35-.16.73-.33,1.16-.16.43-.35.86-.56,1.3s-.44.88-.69,1.3c-.25.42-.48.81-.69,1.16s-.39.64-.56.88c-.17.24-.27.4-.33.47h-2.11l.96-3.35c-.73-.14-1.27-.46-1.61-.98-.35-.51-.46-1.16-.34-1.94Z"/><path class="cls-1" d="M110.45,49.59c.54.35,1.15.66,1.85.95s1.42.53,2.17.73c.75.2,1.51.36,2.26.47.75.11,1.46.17,2.12.17.83,0,1.49-.09,1.96-.27.48-.18.74-.42.79-.71.03-.26-.11-.48-.44-.68-.33-.19-.78-.37-1.34-.55-.56-.17-1.21-.35-1.94-.53s-1.47-.4-2.22-.65c-.75-.25-1.48-.55-2.18-.88-.7-.34-1.31-.75-1.83-1.25-.52-.49-.91-1.07-1.16-1.74-.25-.67-.31-1.45-.17-2.35.14-.87.47-1.67,1-2.41.53-.74,1.24-1.38,2.12-1.92.88-.55,1.93-.98,3.13-1.29,1.2-.31,2.54-.47,4.02-.47s2.79.12,3.85.36c1.06.24,1.92.51,2.6.81.81.36,1.48.76,2,1.2l-3.09,4.42c-.42-.26-.9-.5-1.46-.72-.56-.22-1.13-.4-1.73-.55-.6-.15-1.2-.26-1.79-.35-.6-.09-1.15-.13-1.65-.13-.81,0-1.48.1-2,.29s-.81.46-.86.81c-.04.26.11.48.44.66.33.18.78.36,1.34.53s1.21.35,1.95.52c.74.17,1.48.39,2.22.64.75.25,1.47.55,2.18.9.71.35,1.32.77,1.83,1.27.51.5.89,1.1,1.14,1.78.25.69.31,1.5.17,2.43-.1.71-.39,1.42-.86,2.13-.47.71-1.11,1.35-1.94,1.92-.82.57-1.83,1.04-3.02,1.39-1.19.35-2.57.53-4.15.53s-2.91-.12-4.16-.35-2.31-.5-3.2-.79c-1.04-.33-1.97-.71-2.78-1.14l2.81-5.17Z"/><path class="cls-1" d="M159.17,49.9c-.47,1.14-1.08,2.15-1.83,3.03-.75.88-1.62,1.6-2.6,2.18s-2.06,1.02-3.25,1.31-2.46.44-3.81.44c-1.63,0-3.08-.22-4.34-.65-1.27-.43-2.3-1.08-3.11-1.95-.81-.87-1.36-1.94-1.66-3.22-.3-1.28-.32-2.76-.06-4.45.28-1.7.77-3.19,1.48-4.46.71-1.27,1.6-2.34,2.68-3.21,1.07-.87,2.31-1.52,3.72-1.95,1.4-.43,2.92-.65,4.55-.65,1.39,0,2.63.16,3.74.47,1.11.31,2.06.77,2.86,1.38.8.61,1.43,1.37,1.9,2.29.47.92.75,1.98.83,3.17l-6.11,1.04c-.12-1.04-.5-1.82-1.14-2.35s-1.6-.79-2.89-.79c-1.63,0-2.9.44-3.81,1.31-.91.88-1.5,2.13-1.75,3.76-.24,1.61-.05,2.86.57,3.74.62.88,1.75,1.33,3.38,1.33,1.23,0,2.25-.25,3.05-.75.81-.5,1.43-1.23,1.89-2.18l5.72,1.17Z"/><path class="cls-1" d="M161.98,46.6c.28-1.7.78-3.19,1.5-4.48.72-1.29,1.62-2.37,2.7-3.24,1.08-.87,2.33-1.52,3.74-1.96s2.94-.66,4.59-.66,3.1.22,4.37.66,2.3,1.1,3.11,1.96c.81.87,1.37,1.95,1.68,3.24.31,1.29.34,2.79.08,4.48-.28,1.7-.78,3.19-1.5,4.48-.72,1.29-1.62,2.37-2.7,3.24-1.08.87-2.33,1.52-3.73,1.96s-2.93.66-4.58.66-3.11-.22-4.38-.66-2.31-1.1-3.12-1.96c-.81-.87-1.36-1.95-1.68-3.24-.31-1.29-.34-2.79-.08-4.48ZM172.04,51.75c1.58,0,2.84-.46,3.78-1.36.94-.91,1.54-2.17,1.78-3.78.26-1.65.06-2.92-.58-3.81-.65-.89-1.76-1.34-3.34-1.34s-2.84.45-3.78,1.35c-.94.9-1.54,2.17-1.78,3.8-.26,1.61-.07,2.87.58,3.78.65.91,1.76,1.36,3.34,1.36Z"/><path class="cls-1" d="M187.82,36.85h6.03l6.06,10.37,1.64-10.37h6.03l-3.09,19.5h-6.03l-6.08-10.22-1.61,10.22h-6.03l3.09-19.5Z"/><path class="cls-1" d="M210.5,36.85h6.03l6.06,10.37,1.64-10.37h6.03l-3.09,19.5h-6.03l-6.08-10.22-1.61,10.22h-6.03l3.09-19.5Z"/><path class="cls-1" d="M233.17,36.85h16.61l-.83,5.2h-10.56l-.39,2.42h9.7l-.68,4.26h-9.7l-.39,2.42h10.58l-.83,5.2h-16.61l3.09-19.5Z"/><path class="cls-1" d="M271.34,49.9c-.47,1.14-1.08,2.15-1.83,3.03-.75.88-1.62,1.6-2.6,2.18-.98.58-2.06,1.02-3.25,1.31-1.19.29-2.46.44-3.81.44-1.63,0-3.08-.22-4.34-.65s-2.3-1.08-3.11-1.95c-.81-.87-1.36-1.94-1.66-3.22-.3-1.28-.33-2.76-.07-4.45.28-1.7.77-3.19,1.48-4.46.71-1.27,1.6-2.34,2.68-3.21,1.07-.87,2.31-1.52,3.72-1.95,1.4-.43,2.92-.65,4.55-.65,1.39,0,2.63.16,3.74.47,1.11.31,2.06.77,2.86,1.38.8.61,1.43,1.37,1.9,2.29.47.92.75,1.98.83,3.17l-6.11,1.04c-.12-1.04-.5-1.82-1.14-2.35s-1.6-.79-2.89-.79c-1.63,0-2.9.44-3.81,1.31-.91.88-1.5,2.13-1.76,3.76-.24,1.61-.05,2.86.57,3.74.62.88,1.75,1.33,3.38,1.33,1.23,0,2.25-.25,3.06-.75.81-.5,1.43-1.23,1.88-2.18l5.72,1.17Z"/><path class="cls-1" d="M280.36,42.05h-6.21l.83-5.2h18.46l-.83,5.2h-6.21l-2.26,14.3h-6.03l2.26-14.3Z"/><path class="cls-1" d="M292.99,53.62c.14-.88.54-1.59,1.21-2.13s1.47-.81,2.41-.81,1.65.27,2.13.81.66,1.25.52,2.13c-.14.88-.54,1.6-1.2,2.15-.66.55-1.46.82-2.39.82s-1.65-.27-2.14-.82-.67-1.26-.53-2.15ZM295.02,41.51l.75-4.65h6.03l-.75,4.65-2.18,7.57h-4.08l.23-7.57Z"/></g></svg>