<?xml version="1.0" encoding="UTF-8"?><svg id="Capa_2" xmlns="http://www.w3.org/2000/svg" xmlns:xlink="http://www.w3.org/1999/xlink" viewBox="0 0 324.87 324.87"><defs><style>.cls-1{fill:#571a0c;}.cls-2{fill:#d9b0ac;}.cls-3{fill:#1d1d1b;font-family:Gunterz-Bold, Gunterz;font-size:30px;font-weight:700;}.cls-4{fill:#fff;}.cls-5{fill:#ebe6e0;}.cls-6{fill:url(#Degradado_sin_nombre_529);}.cls-7{fill:#202020;}.cls-8{fill:#ebd4d3;}</style><linearGradient id="Degradado_sin_nombre_529" x1="51.27" y1="38.47" x2="351.03" y2="372.73" gradientUnits="userSpaceOnUse"><stop offset="0" stop-color="#da6a2d"/><stop offset=".38" stop-color="#cc6b4e"/><stop offset=".46" stop-color="#8e3e35" stop-opacity=".98"/><stop offset=".63" stop-color="#e8aa87" stop-opacity=".99"/><stop offset=".94" stop-color="#341116" stop-opacity=".93"/></linearGradient></defs><g id="Capa_2-2"><path class="cls-6" d="M162.44,297.52c-74.49,0-135.09-60.6-135.09-135.09S87.95,27.35,162.44,27.35s135.08,60.6,135.08,135.09-60.6,135.09-135.08,135.09Z"/><path class="cls-5" d="M162.44,32.35c71.84,0,130.09,58.24,130.09,130.09s-58.24,130.09-130.09,130.09S32.35,234.28,32.35,162.43,90.6,32.35,162.44,32.35M162.44,22.35c-37.42,0-72.6,14.57-99.06,41.03-26.46,26.46-41.03,61.64-41.03,99.06s14.57,72.6,41.03,99.06c26.46,26.46,61.64,41.03,99.06,41.03s72.6-14.57,99.06-41.03c26.46-26.46,41.03-61.64,41.03-99.06s-14.57-72.6-41.03-99.06c-26.46-26.46-61.64-41.03-99.06-41.03h0Z"/><text class="cls-3" transform="translate(143.23 251.52) rotate(-160.78)"><tspan x="0" y="0">e</tspan></text><text class="cls-3" transform="translate(122.9 244.91) rotate(-145.88)"><tspan x="0" y="0">v</tspan></text><text class="cls-3" transform="translate(101.58 230.3) rotate(-130.95)"><tspan x="0" y="0">e</tspan></text><text class="cls-3" transform="translate(87.32 214.35) rotate(-116.74)"><tspan x="0" y="0">r</tspan></text><text class="cls-3" transform="translate(76.42 193.35) rotate(-101.52)"><tspan x="0" y="0">y</tspan></text><text class="cls-3" transform="translate(71.5 168.9) rotate(-86.79)"><tspan x="0" y="0">t</tspan></text><text class="cls-3" transform="translate(72.34 147.11) rotate(-72.09)"><tspan x="0" y="0">h</tspan></text><text class="cls-3" transform="translate(80.77 123.17) rotate(-60.9)"><tspan x="0" y="0">i</tspan></text><text class="cls-3" transform="translate(84.96 113.94) rotate(-49.7)"><tspan x="0" y="0">n</tspan></text><text class="cls-3" transform="translate(100.87 94.82) rotate(-33.78)"><tspan x="0" y="0">g</tspan></text><text class="cls-3" transform="translate(123.11 80.86) rotate(-22.99)"><tspan x="0" y="0"> </tspan></text><text class="cls-3" transform="translate(130.83 77.56) rotate(-17.63)"><tspan x="0" y="0"> </tspan></text><text class="cls-3" transform="translate(138.78 74.95) rotate(-11.64)"><tspan x="0" y="0">i</tspan></text><text class="cls-3" transform="translate(148.5 72.17) rotate(-.78)"><tspan x="0" y="0">s</tspan></text><text class="cls-3" transform="translate(172.84 72.49) rotate(9.41)"><tspan x="0" y="0"> </tspan></text><text class="cls-3" transform="translate(181.14 73.84) rotate(14.7)"><tspan x="0" y="0"> </tspan></text><text class="cls-3" transform="translate(189.13 75.12) rotate(24.82)"><tspan x="0" y="0">p</tspan></text><text class="cls-3" transform="translate(210.82 84.95) rotate(39.99)"><tspan x="0" y="0">r</tspan></text><text class="cls-3" transform="translate(229.54 100.18) rotate(56.04)"><tspan x="0" y="0">o</tspan></text><text class="cls-3" transform="translate(244.44 121.89) rotate(72.23)"><tspan x="0" y="0">g</tspan></text><text class="cls-3" transform="translate(252.4 146.62) rotate(88.06)"><tspan x="0" y="0">r</tspan></text><text class="cls-3" transform="translate(253.53 170.7) rotate(103.77)"><tspan x="0" y="0">a</tspan></text><text class="cls-3" transform="translate(247.85 196.16) rotate(121.46)"><tspan x="0" y="0">m</tspan></text><text class="cls-3" transform="translate(232.22 222.14) rotate(140.56)"><tspan x="0" y="0">m</tspan></text><text class="cls-3" transform="translate(208.51 241.07) rotate(156.68)"><tspan x="0" y="0">e</tspan></text><text class="cls-3" transform="translate(189.01 249.83) rotate(171.1)"><tspan x="0" y="0">d</tspan></text><path class="cls-1" d="M164.94,92.77c-40.11,0-72.75,32.63-72.75,72.75s32.63,72.75,72.75,72.75,72.75-32.63,72.75-72.75-32.63-72.75-72.75-72.75Z"/><path class="cls-8" d="M159.94,230.19c-39.06,0-70.85-31.78-70.85-70.85s31.78-70.85,70.85-70.85,70.85,31.78,70.85,70.85-31.78,70.85-70.85,70.85Z"/><path class="cls-1" d="M159.94,90.4c38.08,0,68.95,30.87,68.95,68.95s-30.87,68.95-68.95,68.95-68.95-30.87-68.95-68.95,30.87-68.95,68.95-68.95M159.94,86.6c-40.11,0-72.75,32.63-72.75,72.75s32.63,72.75,72.75,72.75,72.75-32.63,72.75-72.75-32.63-72.75-72.75-72.75h0Z"/><path class="cls-2" d="M197.32,101.43c12.74,12.51,20.66,29.92,20.66,49.19,0,38.08-30.87,68.95-68.95,68.95-13.78,0-26.61-4.06-37.38-11.03,12.44,12.21,29.48,19.75,48.29,19.75,38.08,0,68.95-30.87,68.95-68.95,0-24.29-12.57-45.64-31.56-57.92Z"/><path class="cls-8" d="M159.94,230.19c-23.54,0-42.69-31.78-42.69-70.85s19.15-70.85,42.69-70.85,42.69,31.78,42.69,70.85-19.15,70.85-42.69,70.85Z"/><path class="cls-1" d="M159.94,90.4c22.53,0,40.79,30.87,40.79,68.95s-18.26,68.95-40.79,68.95-40.79-30.87-40.79-68.95,18.26-68.95,40.79-68.95M159.94,86.6c-12.29,0-23.7,7.83-32.11,22.06-8.05,13.6-12.48,31.6-12.48,50.69s4.43,37.09,12.48,50.69c8.41,14.23,19.82,22.06,32.11,22.06s23.7-7.83,32.11-22.06c8.05-13.6,12.47-31.6,12.47-50.69s-4.43-37.09-12.47-50.69c-8.42-14.23-19.82-22.06-32.11-22.06h0Z"/><path class="cls-2" d="M182.05,101.43c7.54,12.51,12.22,29.92,12.22,49.19,0,38.08-18.26,68.95-40.79,68.95-8.15,0-15.74-4.06-22.12-11.03,7.36,12.21,17.44,19.75,28.57,19.75,22.53,0,40.79-30.87,40.79-68.95,0-24.29-7.44-45.64-18.67-57.92Z"/><path class="cls-1" d="M159.94,230.19c-1.05,0-1.9-.85-1.9-1.9V90.4c0-1.05.85-1.9,1.9-1.9s1.9.85,1.9,1.9v137.89c0,1.05-.85,1.9-1.9,1.9Z"/><path class="cls-1" d="M228.88,161.25H90.99c-1.05,0-1.9-.85-1.9-1.9s.85-1.9,1.9-1.9h137.89c1.05,0,1.9.85,1.9,1.9s-.85,1.9-1.9,1.9Z"/><path class="cls-1" d="M159.94,121.02c38.08,0,68.95,17.16,68.95,38.33s-30.87,38.33-68.95,38.33-68.95-17.16-68.95-38.33,30.87-38.33,68.95-38.33M159.94,117.22c-40.79,0-72.75,18.51-72.75,42.13s31.95,42.13,72.75,42.13,72.75-18.51,72.75-42.13-31.95-42.13-72.75-42.13h0Z"/><path class="cls-1" d="M213,160.83c-.78.67-1.33.45-2.13-.04l-49.44-38.99c-1.54-1.48,1.07-4.64,2.73-3.14l49.49,38.99c1.1.9.19,2.46-.65,3.18Z"/><path class="cls-1" d="M208.39,132.09c1.57,1.55,5.7,6.79,5.77,8.93.05,1.55-2.55,5.27-3.58,6.54-.25.31-1.2,1.57-1.47,1.53-.18-.03-2.61-1.93-2.85-2.18-.12-.12-.33-.17-.3-.43.67-1.1,3.77-4.44,3.54-5.6-.13-.64-2.28-3.57-2.82-4.22-4.93-5.86-12.09-8.79-19.66-8.29-.73.05-2.75.6-3.15.52-.29-.06-3.32-2.51-3.74-2.9-.17-.16-.38-.16-.3-.51,9.77-3.68,21.19-.69,28.57,6.61Z"/><path class="cls-1" d="M197.96,156.76c-1.52.44-3.02.97-4.59,1.22-9.47,1.5-19.17-2.18-25.46-9.49-1.2-1.4-4.3-5.65-4.26-7.43.05-2.13,3.53-6.1,4.78-7.84.13-.12.26-.11.42-.06.17.05,2.53,1.97,2.7,2.16.13.14.27.21.27.45,0,.29-2.93,3.86-3.35,4.76-.4.85.15,1.47.61,2.23,5.07,8.38,15.56,12.91,24.98,10.63.22.06,3.32,2.52,3.64,2.84.17.17.34.23.27.54Z"/><path class="cls-1" d="M187.2,151.12c-.39-.05-1.71-.54-2.14-.72-3.32-1.44-6.06-5.14-5.86-8.92l11.56,9.27c.18.1-.16.36-.18.36-1.01,0-2.44.13-3.38,0Z"/><path class="cls-1" d="M190.58,131.12c.66.09,2.37.78,2.99,1.12,2.86,1.57,5.18,4.95,5.01,8.33-.34,0-1-.61-1.31-.84-2.86-2.15-7.43-5.48-9.88-7.9-.14-.13-.74-.72-.18-.72,1.03,0,2.42-.12,3.38,0Z"/><path class="cls-1" d="M127.13,125.1c9.82-.72,19.37,3.62,24.93,11.74.97,1.41,2.65,3.87,2.29,5.58-.17.8-1.81,3.38-2.36,4.18-10.02,14.5-31.64,15.71-43.29,2.49-1.19-1.35-4.24-5.49-4.34-7.16-.08-1.38.97-2.97,1.7-4.15,4.52-7.23,12.54-12.06,21.07-12.69ZM126.95,129.35c-5.61.46-11.51,3.58-15.17,7.81-.54.62-3.05,4-2.98,4.56.17,1.25,3.78,5.35,4.84,6.31,9.45,8.57,23.79,8.09,32.61-1.14.68-.71,3.73-4.56,3.7-5.31-.01-.29-1.33-2.22-1.62-2.62-4.95-6.95-12.89-10.31-21.39-9.61Z"/><path class="cls-4" d="M126.95,129.35c8.5-.7,16.44,2.66,21.39,9.61.28.4,1.61,2.32,1.62,2.62.03.75-3.02,4.6-3.7,5.31-8.82,9.23-23.17,9.71-32.61,1.14-1.06-.97-4.67-5.06-4.84-6.31-.08-.56,2.44-3.94,2.98-4.56,3.66-4.23,9.56-7.35,15.17-7.81ZM126.82,132.3c1.48,3.54-.84,7.59-4.86,7.24-1.69-.15-1.99-1.47-2.21,1.15-.96,11.7,15.52,14.83,18.96,3.76,2.25-7.24-4.62-14.3-11.89-12.15Z"/><path class="cls-7" d="M126.82,132.3c7.27-2.15,14.14,4.91,11.89,12.15-3.44,11.08-19.92,7.94-18.96-3.76.21-2.62.52-1.3,2.21-1.15,4.02.35,6.35-3.7,4.86-7.24Z"/></g></svg>