<?xml version="1.0" encoding="UTF-8"?><svg id="Capa_2" xmlns="http://www.w3.org/2000/svg" xmlns:xlink="http://www.w3.org/1999/xlink" viewBox="0 0 280.17 280.17"><defs><style>.cls-1{fill:#571a0c;}.cls-2{fill:#d9b0ac;}.cls-3{fill:#fff;}.cls-4{fill:#ebe6e0;}.cls-5{fill:url(#Degradado_sin_nombre_529);}.cls-6{fill:#202020;}.cls-7{fill:#ebd4d3;}</style><linearGradient id="Degradado_sin_nombre_529" x1="28.92" y1="16.12" x2="328.68" y2="350.38" gradientUnits="userSpaceOnUse"><stop offset="0" stop-color="#da6a2d"/><stop offset=".38" stop-color="#cc6b4e"/><stop offset=".46" stop-color="#8e3e35" stop-opacity=".98"/><stop offset=".63" stop-color="#e8aa87" stop-opacity=".99"/><stop offset=".94" stop-color="#341116" stop-opacity=".93"/></linearGradient></defs><g id="Capa_2-2"><path class="cls-5" d="M140.09,275.17c-74.49,0-135.09-60.6-135.09-135.09S65.6,5,140.09,5s135.08,60.6,135.08,135.09-60.6,135.09-135.08,135.09Z"/><path class="cls-4" d="M140.09,10c71.84,0,130.09,58.24,130.09,130.09s-58.24,130.09-130.09,130.09S10,211.93,10,140.09,68.24,10,140.09,10M140.09,0c-37.42,0-72.6,14.57-99.06,41.03C14.57,67.49,0,102.67,0,140.09s14.57,72.6,41.03,99.06c26.46,26.46,61.64,41.03,99.06,41.03s72.6-14.57,99.06-41.03c26.46-26.46,41.03-61.64,41.03-99.06s-14.57-72.6-41.03-99.06C212.68,14.57,177.5,0,140.09,0h0Z"/><path class="cls-4" d="M111.88,249.86l-18.1-6.31,1.98-5.66,11.53,4.02.92-2.63-10.57-3.68,1.62-4.65,10.57,3.68.92-2.63-11.53-4.02,1.98-5.67,18.1,6.31-7.41,21.25Z"/><path class="cls-4" d="M81.31,236.71l4.62-15.97-.72-.49-13.12,10.21-6.16-4.17,19.38-14.05,8,5.42-5.87,23.2-6.13-4.16Z"/><path class="cls-4" d="M61.13,221.42l-12.56-14.48,4.53-3.93,8,9.22,2.11-1.83-7.33-8.45,3.72-3.22,7.33,8.45,2.11-1.83-8-9.22,4.53-3.93,12.56,14.48-17,14.75Z"/><path class="cls-4" d="M44.11,200.62l-6.04-11.98c-.58-1.14-.98-2.27-1.2-3.39-.23-1.12-.23-2.18-.02-3.2.22-1.02.68-1.96,1.39-2.84.71-.87,1.72-1.64,3.03-2.3.86-.43,1.69-.72,2.49-.85.8-.14,1.58-.15,2.31-.04.74.11,1.44.33,2.1.67.66.34,1.29.75,1.87,1.24l3.85-7.89,3.7,7.34-3.21,5.89,1.75,3.48,4.93-2.48,3.13,6.21-20.09,10.12ZM46.34,191.71l4.61-2.32-2.62-5.2c-.38-.75-.85-1.25-1.43-1.5-.57-.25-1.25-.18-2.04.22-.43.22-.76.47-1,.75-.24.29-.39.59-.47.91s-.08.64-.02.97c.06.33.18.65.34.97l2.62,5.2Z"/><path class="cls-4" d="M45.13,163.02l-13.21,11.94-1.49-7.29,8.23-6.48-.14-.71-10.12-2.77-1.49-7.29,16.8,5.79,7.06-1.44,1.39,6.82-7.02,1.43Z"/><path class="cls-4" d="M33.12,137.63l-.4,7.16-5.99-.34,1.19-21.27,5.99.34-.4,7.16,16.47.92-.39,6.95-16.48-.92Z"/><path class="cls-4" d="M47.6,105.33l-2.8,8.68,7.85,2.54-2.14,6.62-21.41-6.92,2.14-6.62,7.85,2.54,2.8-8.68-7.85-2.54,2.14-6.62,21.41,6.92-2.14,6.62-7.85-2.54Z"/><path class="cls-4" d="M39.72,88.14l3.38-6.08,19.66,10.94-3.38,6.08-19.66-10.94Z"/><path class="cls-4" d="M46.53,75.76l4.5-5.31,14.87.97-9.13-7.74,4.5-5.31,17.16,14.55-4.5,5.31-14.73-.85,8.99,7.63-4.5,5.31-17.16-14.55Z"/><path class="cls-4" d="M82.19,55.57l10.9-7.29,6.67,9.97-3.72,2.49-1.2-1.8c-.3,1.21-.83,2.37-1.6,3.49s-1.86,2.15-3.27,3.09c-1.51,1.01-3.03,1.72-4.54,2.14s-2.99.5-4.43.26c-1.44-.24-2.81-.82-4.11-1.72-1.3-.91-2.5-2.17-3.58-3.78-1.09-1.63-1.8-3.22-2.12-4.77-.33-1.55-.32-3.04.02-4.47s1.01-2.78,2.02-4.05c1-1.27,2.28-2.43,3.85-3.48,2.36-1.58,4.68-2.46,6.96-2.63,2.28-.18,4.39.41,6.35,1.75l-4.18,5.57c-.88-.59-1.78-.88-2.72-.85-.94.02-1.96.41-3.07,1.15-1.56,1.05-2.43,2.23-2.6,3.56s.27,2.77,1.31,4.34c1.04,1.55,2.2,2.5,3.5,2.86,1.3.36,2.73.02,4.29-1.03,1.03-.69,1.75-1.44,2.15-2.27.4-.82.51-1.7.34-2.65l-5.04,3.37-2.17-3.24Z"/><path class="cls-4" d="M113.82,30.16l6.82-1.4,4.54,22.04-6.82,1.4-4.54-22.04Z"/><path class="cls-4" d="M129.58,41.98c.71.39,1.49.74,2.34,1.06.85.32,1.73.59,2.64.8.9.22,1.8.39,2.71.5.9.12,1.73.17,2.49.16.96-.01,1.7-.13,2.21-.34.52-.22.77-.5.77-.83,0-.3-.22-.56-.64-.77-.42-.21-.98-.42-1.66-.61-.68-.19-1.47-.38-2.35-.58-.88-.2-1.78-.44-2.69-.71-.91-.28-1.81-.61-2.7-.98-.89-.38-1.67-.85-2.36-1.41s-1.25-1.22-1.68-1.99c-.43-.76-.65-1.67-.67-2.71-.01-1,.21-1.93.68-2.78.47-.86,1.16-1.61,2.07-2.25.91-.64,2.03-1.15,3.35-1.53,1.33-.38,2.84-.58,4.54-.6,1.74-.02,3.25.1,4.52.36,1.27.26,2.33.56,3.18.89.99.41,1.83.86,2.54,1.35l-2.72,5.14c-.54-.29-1.16-.56-1.84-.8-.68-.24-1.39-.44-2.11-.6s-1.43-.29-2.12-.38c-.69-.09-1.33-.13-1.91-.12-.94.01-1.69.13-2.25.36-.56.23-.83.54-.83.94,0,.3.22.55.64.76.42.21.97.4,1.66.59.68.19,1.46.38,2.35.57.88.19,1.78.42,2.7.7.91.28,1.81.61,2.7,1,.88.39,1.67.87,2.36,1.44.69.57,1.25,1.25,1.68,2.03.43.78.65,1.72.67,2.8.01.82-.18,1.64-.57,2.47s-1,1.57-1.83,2.25c-.83.67-1.9,1.22-3.2,1.65-1.3.43-2.87.65-4.69.68-1.78.02-3.41-.09-4.88-.34s-2.75-.54-3.84-.86c-1.27-.36-2.41-.79-3.44-1.27l2.17-6Z"/><path class="cls-4" d="M177.78,33.07l11.76,5.44c1.2.55,2.23,1.24,3.1,2.05.87.81,1.53,1.72,1.97,2.73.45,1.01.65,2.12.61,3.34-.04,1.21-.38,2.5-1.01,3.86-.63,1.36-1.39,2.45-2.28,3.26s-1.87,1.38-2.94,1.7c-1.06.32-2.18.41-3.36.26-1.18-.15-2.36-.5-3.56-1.05l-5.45-2.52-1.98,4.28-6.32-2.92,9.45-20.42ZM181.58,41.44l-2.43,5.26,4.79,2.22c.36.17.73.29,1.09.36.36.07.72.06,1.07-.02.35-.08.67-.26.97-.53s.56-.65.79-1.14c.23-.49.34-.94.35-1.34,0-.4-.06-.77-.21-1.11-.15-.33-.37-.62-.66-.87-.29-.24-.61-.45-.97-.62l-4.79-2.22Z"/><path class="cls-4" d="M204.22,46.44l10.27,8.62c.98.82,1.8,1.7,2.45,2.64.65.94,1.08,1.92,1.28,2.93.2,1.02.15,2.07-.16,3.16-.31,1.08-.93,2.19-1.87,3.31-.62.73-1.27,1.32-1.95,1.77-.69.44-1.39.76-2.11.95-.72.19-1.45.26-2.2.21-.74-.05-1.48-.18-2.21-.4l-.42,8.77-6.3-5.28.63-6.68-2.99-2.51-3.55,4.23-5.33-4.47,14.46-17.24ZM205.69,55.51l-3.32,3.95,4.46,3.74c.64.54,1.28.81,1.9.81.62,0,1.22-.33,1.79-1.01.31-.37.51-.73.62-1.09.1-.36.13-.7.07-1.02-.06-.32-.18-.62-.37-.89-.19-.28-.42-.53-.69-.76l-4.46-3.74Z"/><path class="cls-4" d="M217.23,72.59c1.62-1.1,3.22-1.81,4.79-2.16,1.57-.34,3.07-.34,4.51,0,1.44.34,2.8,1.02,4.09,2.02,1.29,1,2.46,2.29,3.53,3.87s1.81,3.15,2.26,4.72c.44,1.57.55,3.09.33,4.55-.22,1.46-.78,2.86-1.69,4.18-.91,1.32-2.17,2.53-3.8,3.62-1.63,1.1-3.22,1.81-4.79,2.16-1.57.34-3.07.34-4.51,0s-2.8-1.02-4.09-2.02c-1.29-1-2.46-2.29-3.52-3.87-1.06-1.58-1.81-3.14-2.25-4.71-.44-1.56-.55-3.08-.33-4.55s.78-2.87,1.68-4.19c.91-1.32,2.17-2.53,3.8-3.62ZM219.3,86.31c1.02,1.51,2.22,2.35,3.6,2.53,1.38.18,2.85-.25,4.39-1.29,1.58-1.06,2.53-2.26,2.88-3.6.34-1.34,0-2.76-1.02-4.27-1.02-1.51-2.21-2.36-3.59-2.54-1.38-.18-2.84.25-4.4,1.3-1.54,1.04-2.49,2.23-2.85,3.58-.36,1.35-.03,2.78.99,4.29Z"/><path class="cls-4" d="M237.31,107.74l4,12.48-11.43,3.66-1.36-4.26,2.06-.66c-1.08-.62-2.05-1.45-2.91-2.5-.86-1.05-1.55-2.38-2.07-4-.55-1.73-.82-3.39-.8-4.96.02-1.57.35-3.01.98-4.33.63-1.32,1.56-2.47,2.79-3.48s2.77-1.8,4.62-2.39c1.87-.6,3.59-.84,5.17-.73,1.58.11,3.01.53,4.29,1.26,1.28.72,2.4,1.74,3.34,3.05.95,1.31,1.71,2.87,2.28,4.66.87,2.7,1.07,5.17.61,7.41-.46,2.24-1.6,4.11-3.43,5.62l-4.2-5.55c.81-.68,1.33-1.47,1.57-2.38.24-.91.15-2-.26-3.27-.57-1.79-1.48-2.95-2.71-3.48-1.23-.53-2.74-.51-4.53.07-1.77.57-3.01,1.42-3.71,2.58-.7,1.15-.77,2.62-.19,4.41.38,1.18.91,2.08,1.59,2.69.68.61,1.5.96,2.45,1.06l-1.85-5.77,3.71-1.19Z"/><path class="cls-4" d="M252.59,125.18l.46,13.4c.04,1.28-.07,2.47-.33,3.58-.26,1.11-.71,2.08-1.33,2.91-.62.83-1.44,1.49-2.45,1.99-1.01.5-2.25.77-3.71.82-.96.03-1.83-.06-2.62-.27-.79-.21-1.5-.52-2.12-.93-.62-.41-1.17-.91-1.63-1.49-.46-.58-.85-1.22-1.18-1.91l-6.81,5.54-.28-8.22,5.39-4-.13-3.9-5.52.19-.24-6.96,22.49-.76ZM246.83,132.34l-5.16.17.2,5.82c.03.84.25,1.49.67,1.96.42.47,1.06.68,1.94.65.48-.02.89-.11,1.22-.27.33-.16.6-.37.8-.63s.34-.55.42-.87c.08-.32.11-.67.1-1.02l-.2-5.82Z"/><path class="cls-4" d="M250.95,162.19l-2.37,9.67-23.8,2.57,1.77-7.23,3.72-.29,2.17-8.83-3.16-1.98,1.76-7.2,19.91,13.28ZM236.06,166.48l7.06-.58.24-.96-5.99-3.79-1.31,5.33Z"/><path class="cls-4" d="M243.81,186.99l-5.31,8.68-13.26-3.44,9.08,10.27-5.31,8.68-19.19-11.74,3.63-5.94,11.36,6.95-9.31-10.3,3.44-5.63,13.4,3.63-11.36-6.95,3.63-5.94,19.19,11.74Z"/><path class="cls-4" d="M222.86,218.24l-7.85,6.46-11.41-7.59,5.22,12.68-7.85,6.46-14.29-17.38,5.38-4.42,8.46,10.29-5.43-12.78,5.1-4.19,11.47,7.81-8.46-10.29,5.37-4.42,14.29,17.38Z"/><path class="cls-4" d="M193.52,240.05l-17.6,7.59-2.38-5.51,11.21-4.83-1.11-2.56-10.28,4.43-1.95-4.52,10.28-4.43-1.1-2.56-11.21,4.83-2.38-5.51,17.6-7.59,8.91,20.66Z"/><path class="cls-4" d="M168.47,249.97l-11.12,1.74c-1.64.26-3.17.25-4.6,0-1.43-.26-2.7-.79-3.81-1.57-1.12-.79-2.04-1.84-2.79-3.16-.74-1.32-1.26-2.91-1.55-4.77-.29-1.86-.28-3.51.03-4.97.31-1.46.88-2.71,1.7-3.77.83-1.06,1.88-1.92,3.16-2.59,1.28-.67,2.74-1.13,4.38-1.38l11.11-1.74,3.48,22.23ZM160.72,245.48l-1.74-11.08-3.71.58c-1.42.22-2.48.86-3.16,1.91-.69,1.05-.88,2.52-.58,4.42s.93,3.22,1.9,3.97c.97.75,2.16,1.01,3.59.79l3.7-.58Z"/><path class="cls-1" d="M142.59,70.43c-40.11,0-72.75,32.63-72.75,72.75s32.63,72.75,72.75,72.75,72.75-32.63,72.75-72.75-32.63-72.75-72.75-72.75Z"/><path class="cls-7" d="M137.58,207.85c-39.06,0-70.85-31.78-70.85-70.85s31.78-70.85,70.85-70.85,70.85,31.78,70.85,70.85-31.78,70.85-70.85,70.85Z"/><path class="cls-1" d="M137.58,68.05c38.08,0,68.95,30.87,68.95,68.95s-30.87,68.95-68.95,68.95-68.95-30.87-68.95-68.95,30.87-68.95,68.95-68.95M137.58,64.25c-40.11,0-72.75,32.63-72.75,72.75s32.63,72.75,72.75,72.75,72.75-32.63,72.75-72.75-32.63-72.75-72.75-72.75h0Z"/><path class="cls-2" d="M174.97,79.08c12.74,12.51,20.66,29.92,20.66,49.19,0,38.08-30.87,68.95-68.95,68.95-13.78,0-26.61-4.06-37.38-11.03,12.44,12.21,29.48,19.75,48.29,19.75,38.08,0,68.95-30.87,68.95-68.95,0-24.29-12.57-45.64-31.56-57.92Z"/><path class="cls-7" d="M137.58,207.85c-23.54,0-42.69-31.78-42.69-70.85s19.15-70.85,42.69-70.85,42.69,31.78,42.69,70.85-19.15,70.85-42.69,70.85Z"/><path class="cls-1" d="M137.58,68.05c22.53,0,40.79,30.87,40.79,68.95s-18.26,68.95-40.79,68.95-40.79-30.87-40.79-68.95,18.26-68.95,40.79-68.95M137.58,64.25c-12.29,0-23.7,7.83-32.11,22.06-8.05,13.6-12.48,31.6-12.48,50.69s4.43,37.09,12.48,50.69c8.41,14.23,19.82,22.06,32.11,22.06s23.7-7.83,32.11-22.06c8.05-13.6,12.47-31.6,12.47-50.69s-4.43-37.09-12.47-50.69c-8.42-14.23-19.82-22.06-32.11-22.06h0Z"/><path class="cls-2" d="M159.7,79.08c7.54,12.51,12.22,29.92,12.22,49.19,0,38.08-18.26,68.95-40.79,68.95-8.15,0-15.74-4.06-22.12-11.03,7.36,12.21,17.44,19.75,28.57,19.75,22.53,0,40.79-30.87,40.79-68.95,0-24.29-7.44-45.64-18.67-57.92Z"/><path class="cls-1" d="M137.58,207.85c-1.05,0-1.9-.85-1.9-1.9V68.05c0-1.05.85-1.9,1.9-1.9s1.9.85,1.9,1.9v137.89c0,1.05-.85,1.9-1.9,1.9Z"/><path class="cls-1" d="M206.53,138.9H68.64c-1.05,0-1.9-.85-1.9-1.9s.85-1.9,1.9-1.9h137.89c1.05,0,1.9.85,1.9,1.9s-.85,1.9-1.9,1.9Z"/><path class="cls-1" d="M137.58,98.67c38.08,0,68.95,17.16,68.95,38.33s-30.87,38.33-68.95,38.33-68.95-17.16-68.95-38.33,30.87-38.33,68.95-38.33M137.58,94.87c-40.79,0-72.75,18.51-72.75,42.13s31.95,42.13,72.75,42.13,72.75-18.51,72.75-42.13-31.95-42.13-72.75-42.13h0Z"/><path class="cls-1" d="M190.65,138.48c-.78.67-1.33.45-2.13-.04l-49.44-38.99c-1.54-1.48,1.07-4.64,2.73-3.14l49.49,38.99c1.1.9.19,2.46-.65,3.18Z"/><path class="cls-1" d="M186.04,109.75c1.57,1.55,5.7,6.79,5.77,8.93.05,1.55-2.55,5.27-3.58,6.54-.25.31-1.2,1.57-1.47,1.53-.18-.03-2.61-1.93-2.85-2.18-.12-.12-.33-.17-.3-.43.67-1.1,3.77-4.44,3.54-5.6-.13-.64-2.28-3.57-2.82-4.22-4.93-5.86-12.09-8.79-19.66-8.29-.73.05-2.75.6-3.15.52-.29-.06-3.32-2.51-3.74-2.9-.17-.16-.38-.16-.3-.51,9.77-3.68,21.19-.69,28.57,6.61Z"/><path class="cls-1" d="M175.61,134.41c-1.52.44-3.02.97-4.59,1.22-9.47,1.5-19.17-2.18-25.46-9.49-1.2-1.4-4.3-5.65-4.26-7.43.05-2.13,3.53-6.1,4.78-7.84.13-.12.26-.11.42-.06.17.05,2.53,1.97,2.7,2.16.13.14.27.21.27.45,0,.29-2.93,3.86-3.35,4.76-.4.85.15,1.47.61,2.23,5.07,8.38,15.56,12.91,24.98,10.63.22.06,3.32,2.52,3.64,2.84.17.17.34.23.27.54Z"/><path class="cls-1" d="M164.85,128.77c-.39-.05-1.71-.54-2.14-.72-3.32-1.44-6.06-5.14-5.86-8.92l11.56,9.27c.18.1-.16.36-.18.36-1.01,0-2.44.13-3.38,0Z"/><path class="cls-1" d="M168.23,108.77c.66.09,2.37.78,2.99,1.12,2.86,1.57,5.18,4.95,5.01,8.33-.34,0-1-.61-1.31-.84-2.86-2.15-7.43-5.48-9.88-7.9-.14-.13-.74-.72-.18-.72,1.03,0,2.42-.12,3.38,0Z"/><path class="cls-1" d="M104.77,102.75c9.82-.72,19.37,3.62,24.93,11.74.97,1.41,2.65,3.87,2.29,5.58-.17.8-1.81,3.38-2.36,4.18-10.02,14.5-31.64,15.71-43.29,2.49-1.19-1.35-4.24-5.49-4.34-7.16-.08-1.38.97-2.97,1.7-4.15,4.52-7.23,12.54-12.06,21.07-12.69ZM104.6,107c-5.61.46-11.51,3.58-15.17,7.81-.54.62-3.05,4-2.98,4.56.17,1.25,3.78,5.35,4.84,6.31,9.45,8.57,23.79,8.09,32.61-1.14.68-.71,3.73-4.56,3.7-5.31-.01-.29-1.33-2.22-1.62-2.62-4.95-6.95-12.89-10.31-21.39-9.61Z"/><path class="cls-3" d="M104.6,107c8.5-.7,16.44,2.66,21.39,9.61.28.4,1.61,2.32,1.62,2.62.03.75-3.02,4.6-3.7,5.31-8.82,9.23-23.17,9.71-32.61,1.14-1.06-.97-4.67-5.06-4.84-6.31-.08-.56,2.44-3.94,2.98-4.56,3.66-4.23,9.56-7.35,15.17-7.81ZM104.46,109.96c1.48,3.54-.84,7.59-4.86,7.24-1.69-.15-1.99-1.47-2.21,1.15-.96,11.7,15.52,14.83,18.96,3.76,2.25-7.24-4.62-14.3-11.89-12.15Z"/><path class="cls-6" d="M104.46,109.96c7.27-2.15,14.14,4.91,11.89,12.15-3.44,11.08-19.92,7.94-18.96-3.76.21-2.62.52-1.3,2.21-1.15,4.02.35,6.35-3.7,4.86-7.24Z"/></g></svg>