<svg width="181" height="269" viewBox="0 0 181 269" fill="none" xmlns="http://www.w3.org/2000/svg">
<mask id="path-1-outside-1_1953_2057" maskUnits="userSpaceOnUse" x="0" y="-1" width="181" height="270" fill="black">
<rect fill="white" y="-1" width="181" height="270"/>
<path d="M160.801 20.56C160.904 20.6651 161.008 20.7586 161.111 20.8637C165.105 24.8469 166.288 30.8626 166.724 36.5395C167.596 47.905 166.242 59.3173 164.887 70.6361C164.325 75.3669 163.762 80.0977 163.2 84.8168C162.959 86.7909 162.672 88.8934 161.398 90.4119C159.343 92.8533 155.682 92.7832 152.548 92.4094C121.339 88.6949 92.0575 74.5376 60.8939 70.531C58.0013 70.1572 54.6726 70.0287 52.641 72.1546C50.2305 74.6777 51.2062 79.1515 53.7314 81.5461C56.2566 83.9407 59.8034 84.7817 63.1781 85.541C83.2307 90.0382 104.133 93.3439 123.141 101.579C131.233 105.083 139.038 109.592 145.5 115.725C149.38 119.404 153.065 123.492 155.911 128.06C160.48 135.384 162.959 146.48 163.762 155.054C164.715 165.123 163.269 175.391 159.86 184.876C154.086 200.902 143.354 213.774 125.276 212.489C103.536 210.936 85.9281 196.58 80.4185 174.97C79.5002 171.384 77.9392 160.019 73.9332 158.582C66.5412 155.907 65.7722 177.388 66.1854 181.698C67.7579 197.982 75.3565 225.21 72.4984 240.734C68.4351 262.799 22.0283 257.414 18.9981 237.241C14.3608 206.31 9.91872 168.102 20.5591 137.918C24.6913 126.202 32.267 115.351 43.091 109.545C64.4177 98.1097 86.8463 111.928 97.7278 130.723C99.8283 134.356 101.894 138.164 105.212 140.687C108.529 143.198 113.51 144.004 116.69 141.306C131.761 128.48 109.527 114.019 99.22 108.424C91.4032 104.172 83.0929 100.621 74.5875 98.0513C63.6372 94.7456 52.8705 97.0117 41.6103 96.6145C39.2343 96.5327 36.8698 96.3575 34.5282 95.9604C31.2798 95.4231 27.9282 94.5937 25.403 92.4327C21.2708 88.8934 20.4558 82.8193 20.1344 77.3176C19.1588 60.3803 20.1688 43.3144 23.1302 26.6107C23.6697 23.5737 24.347 20.3965 26.3327 18.072C29.7188 14.1705 35.4809 13.9486 40.5543 14.007C74.2891 14.4976 108.024 14.9882 141.759 15.4671C148.473 15.5606 155.9 15.946 160.801 20.5366V20.56Z"/>
</mask>
<path d="M160.801 20.56C160.904 20.6651 161.008 20.7586 161.111 20.8637C165.105 24.8469 166.288 30.8626 166.724 36.5395C167.596 47.905 166.242 59.3173 164.887 70.6361C164.325 75.3669 163.762 80.0977 163.2 84.8168C162.959 86.7909 162.672 88.8934 161.398 90.4119C159.343 92.8533 155.682 92.7832 152.548 92.4094C121.339 88.6949 92.0575 74.5376 60.8939 70.531C58.0013 70.1572 54.6726 70.0287 52.641 72.1546C50.2305 74.6777 51.2062 79.1515 53.7314 81.5461C56.2566 83.9407 59.8034 84.7817 63.1781 85.541C83.2307 90.0382 104.133 93.3439 123.141 101.579C131.233 105.083 139.038 109.592 145.5 115.725C149.38 119.404 153.065 123.492 155.911 128.06C160.48 135.384 162.959 146.48 163.762 155.054C164.715 165.123 163.269 175.391 159.86 184.876C154.086 200.902 143.354 213.774 125.276 212.489C103.536 210.936 85.9281 196.58 80.4185 174.97C79.5002 171.384 77.9392 160.019 73.9332 158.582C66.5412 155.907 65.7722 177.388 66.1854 181.698C67.7579 197.982 75.3565 225.21 72.4984 240.734C68.4351 262.799 22.0283 257.414 18.9981 237.241C14.3608 206.31 9.91872 168.102 20.5591 137.918C24.6913 126.202 32.267 115.351 43.091 109.545C64.4177 98.1097 86.8463 111.928 97.7278 130.723C99.8283 134.356 101.894 138.164 105.212 140.687C108.529 143.198 113.51 144.004 116.69 141.306C131.761 128.48 109.527 114.019 99.22 108.424C91.4032 104.172 83.0929 100.621 74.5875 98.0513C63.6372 94.7456 52.8705 97.0117 41.6103 96.6145C39.2343 96.5327 36.8698 96.3575 34.5282 95.9604C31.2798 95.4231 27.9282 94.5937 25.403 92.4327C21.2708 88.8934 20.4558 82.8193 20.1344 77.3176C19.1588 60.3803 20.1688 43.3144 23.1302 26.6107C23.6697 23.5737 24.347 20.3965 26.3327 18.072C29.7188 14.1705 35.4809 13.9486 40.5543 14.007C74.2891 14.4976 108.024 14.9882 141.759 15.4671C148.473 15.5606 155.9 15.946 160.801 20.5366V20.56Z" fill="#341116"/>
<path d="M160.801 20.56H146.801V26.2874L150.815 30.3725L160.801 20.56ZM161.111 20.8637L151.125 30.6762L151.175 30.7269L151.225 30.7771L161.111 20.8637ZM166.724 36.5395L180.683 35.4681L180.683 35.467L166.724 36.5395ZM164.887 70.6361L150.986 68.9727L150.985 68.9833L164.887 70.6361ZM163.2 84.8168L177.097 86.5136L177.099 86.4936L177.102 86.4736L163.2 84.8168ZM161.398 90.4119L172.109 99.4267L172.116 99.4186L172.123 99.4106L161.398 90.4119ZM152.548 92.4094L154.206 78.5079L154.203 78.5075L152.548 92.4094ZM60.8939 70.531L59.0996 84.4156L59.1087 84.4167L60.8939 70.531ZM52.641 72.1546L42.5196 62.4821L42.5181 62.4837L52.641 72.1546ZM63.1781 85.541L60.105 99.1996L60.1144 99.2017L63.1781 85.541ZM123.141 101.579L117.575 114.425L117.577 114.426L123.141 101.579ZM145.5 115.725L135.864 125.88L135.867 125.883L145.5 115.725ZM155.911 128.06L144.03 135.465L144.033 135.469L155.911 128.06ZM163.762 155.054L149.824 156.36L149.825 156.373L163.762 155.054ZM159.86 184.876L173.031 189.621L173.035 189.611L159.86 184.876ZM125.276 212.489L124.278 226.454L124.283 226.454L125.276 212.489ZM80.4185 174.97L93.9845 171.511L93.9827 171.504L93.9809 171.497L80.4185 174.97ZM73.9332 158.582L69.1694 171.746L69.1881 171.753L69.2068 171.76L73.9332 158.582ZM66.1854 181.698L52.2493 183.034L52.2502 183.044L66.1854 181.698ZM72.4984 240.734L86.2669 243.269L86.267 243.269L72.4984 240.734ZM18.9981 237.241L5.15279 239.317L5.15339 239.321L18.9981 237.241ZM20.5591 137.918L7.35623 133.262L7.35551 133.264L20.5591 137.918ZM43.091 109.545L36.4752 97.2071L36.4739 97.2078L43.091 109.545ZM97.7278 130.723L109.848 123.715L109.844 123.708L97.7278 130.723ZM105.212 140.687L96.7362 151.83L96.7487 151.839L96.7612 151.849L105.212 140.687ZM116.69 141.306L125.749 151.98L125.756 151.974L125.763 151.968L116.69 141.306ZM99.22 108.424L92.5303 120.722L92.541 120.728L99.22 108.424ZM74.5875 98.0513L78.6366 84.6496L78.6335 84.6487L74.5875 98.0513ZM41.6103 96.6145L42.1038 82.6232L42.0918 82.6228L41.6103 96.6145ZM34.5282 95.9604L36.8693 82.1575L36.8411 82.1527L36.813 82.1481L34.5282 95.9604ZM25.403 92.4327L16.2957 103.066L16.3004 103.07L25.403 92.4327ZM20.1344 77.3176L6.15758 78.1227L6.15824 78.1341L20.1344 77.3176ZM23.1302 26.6107L9.34603 24.1622L9.34522 24.1668L23.1302 26.6107ZM26.3327 18.072L15.7596 8.8954L15.7236 8.93683L15.688 8.97853L26.3327 18.072ZM40.5543 14.007L40.7579 0.00846726L40.7367 0.0081588L40.7155 0.00791461L40.5543 14.007ZM141.759 15.4671L141.56 29.4657L141.564 29.4657L141.759 15.4671ZM160.801 20.5366H174.801V14.4675L170.371 10.3186L160.801 20.5366ZM150.815 30.3725C150.931 30.4899 151.031 30.5884 151.104 30.6595C151.172 30.7262 151.234 30.7862 151.254 30.8053C151.286 30.8358 151.275 30.8255 151.259 30.8092C151.237 30.7885 151.189 30.7411 151.125 30.6762L171.097 11.0512C170.981 10.9338 170.881 10.8353 170.808 10.7642C170.74 10.6975 170.678 10.6375 170.658 10.6184C170.626 10.5878 170.637 10.5982 170.653 10.6145C170.675 10.6352 170.723 10.6826 170.787 10.7475L150.815 30.3725ZM151.225 30.7771C151.18 30.7322 151.507 31.0238 151.892 32.2516C152.291 33.526 152.585 35.2667 152.765 37.612L180.683 35.467C180.219 29.4269 178.853 18.7841 170.996 10.9502L151.225 30.7771ZM152.765 37.6109C153.515 47.3801 152.368 57.4283 150.987 68.9727L178.788 72.2995C180.116 61.2063 181.678 48.43 180.683 35.4681L152.765 37.6109ZM150.985 68.9833C150.423 73.7145 149.861 78.4432 149.298 83.1599L177.102 86.4736C177.664 81.7521 178.227 77.0193 178.789 72.2889L150.985 68.9833ZM149.303 83.1199C149.244 83.6077 149.209 83.8696 149.176 84.0726C149.145 84.2624 149.139 84.251 149.175 84.1184C149.24 83.8809 149.581 82.7151 150.673 81.4133L172.123 99.4106C176.503 94.1905 176.951 87.7067 177.097 86.5136L149.303 83.1199ZM150.687 81.3972C152.548 79.1858 154.733 78.7087 155.246 78.6295C155.507 78.5894 155.561 78.609 155.324 78.6029C155.095 78.597 154.744 78.572 154.206 78.5079L150.89 106.311C152.792 106.538 156.019 106.841 159.509 106.303C163.151 105.742 168.194 104.079 172.109 99.4267L150.687 81.3972ZM154.203 78.5075C139.98 76.8147 125.986 72.7171 110.702 68.1627C95.8043 63.7236 79.5858 58.8189 62.6791 56.6453L59.1087 84.4167C73.3655 86.2497 87.3694 90.4269 102.706 94.9967C117.655 99.4512 133.907 104.29 150.894 106.311L154.203 78.5075ZM62.6881 56.6465C60.956 56.4226 57.9435 56.0958 54.6521 56.5207C51.2167 56.9642 46.4545 58.3647 42.5196 62.4821L62.7623 81.8272C60.8592 83.8187 58.7771 84.2205 58.2371 84.2902C57.9632 84.3256 57.8846 84.3074 58.0847 84.3158C58.2795 84.324 58.5925 84.35 59.0996 84.4156L62.6881 56.6465ZM42.5181 62.4837C37.5633 67.67 36.7753 74.1777 37.4882 78.962C38.1923 83.6869 40.4927 88.2859 44.0982 91.7049L63.3647 71.3873C64.4449 72.4117 64.9949 73.5765 65.1824 74.8352C65.3788 76.1532 65.3082 79.1624 62.7638 81.8256L42.5181 62.4837ZM44.0982 91.7049C49.8729 97.1809 57.4005 98.5911 60.105 99.1996L66.2511 71.8824C65.4066 71.6924 64.775 71.5466 64.2003 71.3952C63.6398 71.2475 63.269 71.1289 63.0195 71.0361C62.5051 70.8446 62.8291 70.8795 63.3647 71.3873L44.0982 91.7049ZM60.1144 99.2017C81.3888 103.973 100.165 106.882 117.575 114.425L128.706 88.7327C108.1 79.8052 85.0725 76.1035 66.2417 71.8803L60.1144 99.2017ZM117.577 114.426C124.732 117.524 130.97 121.236 135.864 125.88L155.137 105.569C147.107 97.9485 137.733 92.6419 128.704 88.7318L117.577 114.426ZM135.867 125.883C139.252 129.094 142.034 132.263 144.03 135.465L167.793 120.654C164.095 114.722 159.508 109.714 155.134 105.566L135.867 125.883ZM144.033 135.469C146.912 140.085 149.101 148.645 149.824 156.36L177.701 153.748C176.817 144.316 174.047 130.682 167.79 120.65L144.033 135.469ZM149.825 156.373C150.571 164.256 149.446 172.459 146.685 180.14L173.035 189.611C177.092 178.322 178.86 165.991 177.7 153.735L149.825 156.373ZM146.689 180.131C144.266 186.855 141.189 191.755 137.855 194.734C134.886 197.386 131.366 198.887 126.268 198.525L124.283 226.454C137.263 227.377 148.149 223.083 156.509 215.614C164.504 208.472 169.68 198.923 173.031 189.621L146.689 180.131ZM126.274 198.525C110.475 197.396 97.9862 187.207 93.9845 171.511L66.8525 178.429C73.87 205.953 96.597 224.476 124.278 226.454L126.274 198.525ZM93.9809 171.497C93.8471 170.975 93.7065 170.219 93.2758 168.191C92.9184 166.508 92.428 164.307 91.78 162.072C91.163 159.943 90.2284 157.155 88.7899 154.526C87.616 152.38 84.6379 147.548 78.6596 145.404L69.2068 171.76C67.0725 170.994 65.7502 169.807 65.1224 169.139C64.4978 168.474 64.2347 167.981 64.225 167.963C64.1969 167.912 64.2701 168.04 64.414 168.419C64.5522 168.784 64.7122 169.264 64.8874 169.868C65.2453 171.103 65.5676 172.505 65.8864 174.006C66.0705 174.874 66.1613 175.328 66.3413 176.182C66.4802 176.841 66.6591 177.674 66.8561 178.443L93.9809 171.497ZM78.6971 145.417C74.6177 143.941 69.9289 143.895 65.5375 145.945C61.596 147.786 59.1763 150.718 57.7979 152.845C55.1694 156.9 53.9962 161.673 53.3809 164.895C52.0799 171.707 51.9094 179.489 52.2493 183.034L80.1215 180.362C80.1279 180.43 80.0996 180.1 80.0964 179.3C80.0934 178.573 80.1118 177.645 80.1645 176.594C80.2727 174.44 80.5084 172.113 80.8838 170.147C81.3331 167.794 81.7124 167.428 81.2941 168.074C81.0209 168.495 79.8708 170.154 77.3846 171.315C74.4485 172.687 71.4008 172.554 69.1694 171.746L78.6971 145.417ZM52.2502 183.044C53.0887 191.726 55.6239 204.068 57.182 213.73C58.9549 224.723 59.6621 233.135 58.7299 238.199L86.267 243.269C88.1928 232.809 86.5298 219.844 84.8248 209.272C82.905 197.368 80.8546 187.954 80.1205 180.353L52.2502 183.044ZM58.73 238.198C58.7263 238.218 58.868 238.757 57.0067 239.612C54.8217 240.616 51.1292 241.284 46.6 240.882C42.1248 240.484 38.1003 239.148 35.4344 237.497C32.7049 235.807 32.783 234.764 32.8427 235.162L5.15339 239.321C6.72827 249.805 13.7436 257 20.6946 261.303C27.7092 265.647 36.1086 268.06 44.1217 268.772C52.0809 269.479 60.9414 268.618 68.6952 265.056C76.7727 261.345 84.239 254.282 86.2669 243.269L58.73 238.198ZM32.8433 235.166C28.1381 203.781 24.4503 168.989 33.7627 142.573L7.35551 133.264C-4.61284 167.214 0.583525 208.839 5.15279 239.317L32.8433 235.166ZM33.762 142.575C37.1187 133.058 42.848 125.562 49.7082 121.883L36.4739 97.2078C21.686 105.139 12.2639 119.347 7.35623 133.262L33.762 142.575ZM49.7069 121.883C56.0022 118.508 62.304 118.714 68.5377 121.545C75.1278 124.538 81.4024 130.467 85.6119 137.738L109.844 123.708C103.172 112.184 92.7913 101.807 80.115 96.0505C67.0824 90.1323 51.5065 89.1471 36.4752 97.2071L49.7069 121.883ZM85.608 137.731C87.2139 140.508 90.6949 147.235 96.7362 151.83L113.687 129.544C113.603 129.479 113.224 129.161 112.518 128.143C111.738 127.018 111.052 125.798 109.848 123.715L85.608 137.731ZM96.7612 151.849C102.979 156.556 115.637 160.561 125.749 151.98L107.631 130.632C109.494 129.05 111.418 128.933 112.21 129.002C112.923 129.064 113.334 129.276 113.662 129.525L96.7612 151.849ZM125.763 151.968C131.99 146.668 136.087 139.502 135.757 131.001C135.459 123.325 131.608 117.222 128.199 113.157C121.429 105.085 111.271 99.0361 105.899 96.1198L92.541 120.728C97.4762 123.407 103.589 127.386 106.745 131.15C108.299 133.002 107.824 133.27 107.778 132.087C107.7 130.08 108.925 129.53 107.617 130.644L125.763 151.968ZM105.91 96.1256C97.3214 91.4542 88.1296 87.5178 78.6366 84.6496L70.5384 111.453C78.0562 113.724 85.485 116.89 92.5303 120.722L105.91 96.1256ZM78.6335 84.6487C71.0963 82.3733 63.9661 82.1306 57.9497 82.2447C51.1427 82.3738 47.3523 82.8083 42.1038 82.6232L41.1168 110.606C47.1285 110.818 54.3516 110.318 58.4805 110.24C63.4002 110.146 67.1284 110.424 70.5415 111.454L78.6335 84.6487ZM42.0918 82.6228C40.0582 82.5528 38.37 82.412 36.8693 82.1575L32.1871 109.763C35.3696 110.303 38.4104 110.513 41.1288 110.606L42.0918 82.6228ZM36.813 82.1481C35.4973 81.9304 34.7573 81.7444 34.3099 81.5881C33.9055 81.4469 34.103 81.4514 34.5055 81.7959L16.3004 103.07C21.9713 107.923 28.7244 109.191 32.2435 109.773L36.813 82.1481ZM34.5102 81.7999C35.1978 82.3888 35.0889 82.7678 34.796 81.7477C34.4792 80.6444 34.2577 79.02 34.1106 76.5012L6.15824 78.1341C6.33249 81.117 6.67914 85.2805 7.88325 89.4745C9.11126 93.7517 11.4759 98.9373 16.2957 103.066L34.5102 81.7999ZM34.1112 76.5125C33.1983 60.6634 34.1437 44.6879 36.9153 29.0547L9.34522 24.1668C6.19403 41.941 5.11924 60.0972 6.15758 78.1227L34.1112 76.5125ZM36.9145 29.0592C37.0379 28.3642 37.1388 27.8365 37.241 27.3799C37.3417 26.9298 37.4227 26.6463 37.4794 26.4751C37.6012 26.1073 37.5244 26.525 36.9774 27.1654L15.688 8.97853C10.8996 14.5838 9.81934 21.4977 9.34603 24.1622L36.9145 29.0592ZM36.9058 27.2485C35.9589 28.3395 35.0717 28.388 35.7472 28.2431C36.0811 28.1715 36.6234 28.0935 37.4549 28.0467C38.2882 27.9998 39.2291 27.9927 40.3932 28.0061L40.7155 0.00791461C38.1178 -0.0219896 34.0353 -0.026656 29.8743 0.865953C25.5539 1.79276 20.0926 3.90297 15.7596 8.8954L36.9058 27.2485ZM40.3507 28.0055C74.0851 28.4961 107.822 28.9867 141.56 29.4657L141.957 1.46851C108.225 0.989636 74.493 0.499072 40.7579 0.00846726L40.3507 28.0055ZM141.564 29.4657C144.898 29.5121 147.252 29.6394 149.134 30.0273C150.001 30.2059 150.547 30.4001 150.869 30.5477C151.023 30.6185 151.117 30.6742 151.166 30.7064C151.213 30.7374 151.23 30.7535 151.231 30.7546L170.371 10.3186C165.414 5.67562 159.629 3.60169 154.786 2.60359C150.051 1.62773 145.334 1.51551 141.953 1.46846L141.564 29.4657ZM146.801 20.5366V20.56H174.801V20.5366H146.801Z" fill="#EBE6E0" mask="url(#path-1-outside-1_1953_2057)"/>
</svg>
