<?xml version="1.0" encoding="UTF-8"?><svg id="Capa_2" xmlns="http://www.w3.org/2000/svg" xmlns:xlink="http://www.w3.org/1999/xlink" viewBox="0 0 180.99 269"><defs><style>.cls-1{mask:url(#mask);}.cls-2{fill:#fff;}.cls-3{fill:#ebe6e0;}.cls-4{fill:#da6a2d;}</style><mask id="mask" x="0" y="-1" width="181" height="270" maskUnits="userSpaceOnUse"><g id="path-1-outside-1_1953_2057"><rect class="cls-2" x="0" y="-1" width="181" height="270"/><path d="M160.8,20.56c.1.11.21.2.31.3,3.99,3.98,5.18,10,5.61,15.68.87,11.37-.48,22.78-1.84,34.1-.56,4.73-1.12,9.46-1.69,14.18-.24,1.97-.53,4.08-1.8,5.6-2.05,2.44-5.72,2.37-8.85,2-31.21-3.71-60.49-17.87-91.65-21.88-2.89-.37-6.22-.5-8.25,1.62-2.41,2.52-1.43,7,1.09,9.39s6.07,3.24,9.45,3.99c20.05,4.5,40.95,7.8,59.96,16.04,8.09,3.5,15.9,8.01,22.36,14.15,3.88,3.68,7.57,7.77,10.41,12.33,4.57,7.32,7.05,18.42,7.85,26.99.95,10.07-.49,20.34-3.9,29.82-5.77,16.03-16.51,28.9-34.58,27.61-21.74-1.55-39.35-15.91-44.86-37.52-.92-3.59-2.48-14.95-6.49-16.39-7.39-2.68-8.16,18.81-7.75,23.12,1.57,16.28,9.17,43.51,6.31,59.04-4.06,22.07-50.47,16.68-53.5-3.49-4.64-30.93-9.08-69.14,1.56-99.32,4.13-11.72,11.71-22.57,22.53-28.37,21.33-11.44,43.76,2.38,54.64,21.18,2.1,3.63,4.17,7.44,7.48,9.96,3.32,2.51,8.3,3.32,11.48.62,15.07-12.83-7.16-27.29-17.47-32.88-7.82-4.25-16.13-7.8-24.63-10.37-10.95-3.31-21.72-1.04-32.98-1.44-2.38-.08-4.74-.26-7.08-.65-3.25-.54-6.6-1.37-9.13-3.53-4.13-3.54-4.95-9.61-5.27-15.12-.98-16.94.03-34,3-50.71.54-3.04,1.22-6.21,3.2-8.54,3.39-3.9,9.15-4.12,14.22-4.07,33.73.49,67.47.98,101.2,1.46,6.71.09,14.14.48,19.04,5.07v.02Z"/></g></mask></defs><g id="Capa_1-2"><path class="cls-4" d="M160.8,20.56c.1.11.21.2.31.3,3.99,3.98,5.18,10,5.61,15.68.87,11.37-.48,22.78-1.84,34.1-.56,4.73-1.12,9.46-1.69,14.18-.24,1.97-.53,4.08-1.8,5.6-2.05,2.44-5.72,2.37-8.85,2-31.21-3.71-60.49-17.87-91.65-21.88-2.89-.37-6.22-.5-8.25,1.62-2.41,2.52-1.43,7,1.09,9.39s6.07,3.24,9.45,3.99c20.05,4.5,40.95,7.8,59.96,16.04,8.09,3.5,15.9,8.01,22.36,14.15,3.88,3.68,7.57,7.77,10.41,12.33,4.57,7.32,7.05,18.42,7.85,26.99.95,10.07-.49,20.34-3.9,29.82-5.77,16.03-16.51,28.9-34.58,27.61-21.74-1.55-39.35-15.91-44.86-37.52-.92-3.59-2.48-14.95-6.49-16.39-7.39-2.68-8.16,18.81-7.75,23.12,1.57,16.28,9.17,43.51,6.31,59.04-4.06,22.07-50.47,16.68-53.5-3.49-4.64-30.93-9.08-69.14,1.56-99.32,4.13-11.72,11.71-22.57,22.53-28.37,21.33-11.44,43.76,2.38,54.64,21.18,2.1,3.63,4.17,7.44,7.48,9.96,3.32,2.51,8.3,3.32,11.48.62,15.07-12.83-7.16-27.29-17.47-32.88-7.82-4.25-16.13-7.8-24.63-10.37-10.95-3.31-21.72-1.04-32.98-1.44-2.38-.08-4.74-.26-7.08-.65-3.25-.54-6.6-1.37-9.13-3.53-4.13-3.54-4.95-9.61-5.27-15.12-.98-16.94.03-34,3-50.71.54-3.04,1.22-6.21,3.2-8.54,3.39-3.9,9.15-4.12,14.22-4.07,33.73.49,67.47.98,101.2,1.46,6.71.09,14.14.48,19.04,5.07v.02Z"/><g class="cls-1"><path class="cls-3" d="M160.8,20.56h-14v5.73l4.01,4.09,9.99-9.81ZM161.11,20.86l-9.99,9.81.05.05.05.05,9.89-9.91ZM166.72,36.54l13.96-1.07h0s-13.96,1.07-13.96,1.07ZM164.88,70.64l-13.9-1.66h0s13.9,1.66,13.9,1.66ZM163.2,84.82l13.9,1.7v-.02s0-.02,0-.02l-13.9-1.66ZM161.39,90.41l10.71,9.01h0s0-.02,0-.02l-10.73-9ZM152.54,92.41l1.66-13.9h0s-1.65,13.9-1.65,13.9ZM60.89,70.53l-1.79,13.88h0s1.79-13.88,1.79-13.88ZM52.64,72.16l-10.12-9.67h0s10.12,9.67,10.12,9.67ZM63.17,85.54l-3.07,13.66h0s3.06-13.66,3.06-13.66ZM123.14,101.58l-5.57,12.85h0s5.56-12.85,5.56-12.85ZM145.5,115.73l-9.64,10.15h0s9.63-10.15,9.63-10.15ZM155.91,128.06l-11.88,7.4h0s11.88-7.4,11.88-7.4ZM163.76,155.05l-13.94,1.31h0s13.94-1.31,13.94-1.31ZM159.86,184.88l13.17,4.74h0s-13.18-4.74-13.18-4.74ZM125.27,212.49l-1,13.96h0l.99-13.96ZM80.42,174.97l13.57-3.46h0s0-.01,0-.01l-13.56,3.47ZM73.93,158.58l-4.76,13.16h.02s.02.01.02.01l4.73-13.18ZM66.18,181.7l-13.94,1.34h0s13.94-1.34,13.94-1.34ZM72.5,240.73l13.77,2.54h0l-13.77-2.54ZM18.99,237.24l-13.85,2.08h0s13.84-2.08,13.84-2.08ZM20.56,137.92l-13.2-4.66h0s13.2,4.66,13.2,4.66ZM43.09,109.55l-6.62-12.34h0s6.62,12.34,6.62,12.34ZM97.72,130.72l12.12-7.01h0s-12.12,7.01-12.12,7.01ZM105.21,140.69l-8.48,11.14h.01s.01.02.01.02l8.45-11.16ZM116.69,141.31l9.06,10.67h0s0-.01,0-.01l-9.07-10.66ZM99.22,108.42l-6.69,12.3h.01s6.68-12.3,6.68-12.3ZM74.58,98.05l4.05-13.4h0s-4.05,13.4-4.05,13.4ZM41.61,96.62l.49-13.99h-.01s-.48,13.99-.48,13.99ZM34.52,95.96l2.34-13.8h-.03s-.03,0-.03,0l-2.28,13.81ZM25.4,92.43l-9.11,10.63h0s9.1-10.63,9.1-10.63ZM20.13,77.32l-13.98.81h0s13.98-.81,13.98-.81ZM23.13,26.61l-13.78-2.45h0s13.78,2.45,13.78,2.45ZM26.33,18.07l-10.57-9.18-.04.04-.04.04,10.64,9.09ZM40.55,14.01L40.75,0h-.02s-.02,0-.02,0l-.16,14ZM141.76,15.47l-.2,14h0l.2-14ZM160.8,20.54h14v-6.07l-4.43-4.15-9.57,10.22ZM150.81,30.37c.12.12.22.22.29.29.07.07.13.13.15.15.03.03.02.02,0,0-.02-.02-.07-.07-.13-.13l19.97-19.63c-.12-.12-.22-.22-.29-.29-.07-.07-.13-.13-.15-.15-.03-.03-.02-.02,0,0,.02.02.07.07.13.13l-19.97,19.62ZM151.22,30.78s.28.25.67,1.47c.4,1.27.69,3.02.87,5.36l27.92-2.15c-.46-6.04-1.83-16.68-9.69-24.52l-19.77,19.83ZM152.76,37.61c.75,9.77-.4,19.82-1.78,31.36l27.8,3.33c1.33-11.09,2.89-23.87,1.9-36.83l-27.92,2.14ZM150.98,68.98c-.56,4.73-1.12,9.46-1.69,14.18l27.8,3.31c.56-4.72,1.12-9.45,1.69-14.18l-27.8-3.31ZM149.3,83.12c-.06.49-.09.75-.13.95-.03.19-.04.18,0,.05.07-.24.41-1.4,1.5-2.71l21.45,18c4.38-5.22,4.83-11.7,4.97-12.9l-27.79-3.39ZM150.68,81.4c1.86-2.21,4.05-2.69,4.56-2.77.26-.04.32-.02.08-.03-.23,0-.58-.03-1.12-.1l-3.32,27.8c1.9.23,5.13.53,8.62,0,3.64-.56,8.68-2.22,12.6-6.88l-21.42-18.03ZM154.2,78.51c-14.22-1.69-28.22-5.79-43.5-10.34-14.9-4.44-31.12-9.34-48.02-11.52l-3.57,27.77c14.26,1.83,28.26,6.01,43.6,10.58,14.95,4.45,31.2,9.29,48.19,11.31l3.31-27.8ZM62.68,56.65c-1.73-.22-4.74-.55-8.04-.13-3.44.44-8.2,1.84-12.13,5.96l20.24,19.35c-1.9,1.99-3.99,2.39-4.53,2.46-.27.04-.35.02-.15.03.19,0,.51.03,1.01.1l3.59-27.77ZM42.51,62.48c-4.95,5.19-5.74,11.69-5.03,16.48.7,4.72,3,9.32,6.61,12.74l19.27-20.32c1.08,1.02,1.63,2.19,1.82,3.45.2,1.32.13,4.33-2.42,6.99l-20.25-19.34ZM44.09,91.71c5.77,5.48,13.3,6.89,16.01,7.49l6.15-27.32c-.84-.19-1.48-.34-2.05-.49-.56-.15-.93-.27-1.18-.36-.51-.19-.19-.16.35.35l-19.27,20.32ZM60.11,99.2c21.27,4.77,40.05,7.68,57.46,15.22l11.13-25.69c-20.61-8.93-43.63-12.63-62.46-16.85l-6.13,27.32ZM117.57,114.43c7.15,3.1,13.39,6.81,18.29,11.45l19.27-20.31c-8.03-7.62-17.4-12.93-26.43-16.84l-11.13,25.69ZM135.86,125.88c3.38,3.21,6.17,6.38,8.16,9.58l23.76-14.81c-3.7-5.93-8.29-10.94-12.66-15.09l-19.27,20.32ZM144.03,135.47c2.88,4.62,5.07,13.18,5.79,20.89l27.88-2.61c-.88-9.43-3.65-23.07-9.91-33.1l-23.76,14.82ZM149.82,156.37c.75,7.88-.38,16.09-3.14,23.77l26.35,9.47c4.06-11.29,5.82-23.62,4.66-35.88l-27.88,2.64ZM146.69,180.13c-2.42,6.72-5.5,11.62-8.83,14.6-2.97,2.65-6.49,4.15-11.59,3.79l-1.99,27.93c12.98.92,23.87-3.37,32.23-10.84,7.99-7.14,13.17-16.69,16.52-25.99l-26.34-9.49ZM126.27,198.53c-15.8-1.13-28.29-11.32-32.29-27.01l-27.13,6.92c7.02,27.52,29.74,46.05,57.43,48.02l2-27.93ZM93.98,171.5c-.13-.52-.27-1.28-.71-3.31-.36-1.68-.85-3.88-1.5-6.12-.62-2.13-1.55-4.92-2.99-7.55-1.17-2.15-4.15-6.98-10.13-9.12l-9.45,26.36c-2.13-.77-3.46-1.95-4.08-2.62-.62-.67-.89-1.16-.9-1.18-.03-.05.05.08.19.46.14.36.3.85.47,1.45.36,1.24.68,2.64,1,4.14.18.87.27,1.32.45,2.18.14.66.32,1.49.51,2.26l27.12-6.95ZM78.69,145.42c-4.08-1.48-8.77-1.52-13.16.53-3.94,1.84-6.36,4.77-7.74,6.9-2.63,4.05-3.8,8.83-4.42,12.05-1.3,6.81-1.47,14.59-1.13,18.14l27.87-2.67c0,.07-.02-.26-.03-1.06,0-.73.02-1.65.07-2.71.11-2.15.34-4.48.72-6.45.45-2.35.83-2.72.41-2.07-.27.42-1.42,2.08-3.91,3.24-2.94,1.37-5.98,1.24-8.22.43l9.53-26.33ZM52.25,183.04c.84,8.68,3.37,21.02,4.93,30.69,1.77,10.99,2.48,19.4,1.55,24.47l27.54,5.07c1.93-10.46.26-23.43-1.44-34-1.92-11.9-3.97-21.32-4.7-28.92l-27.87,2.69ZM58.73,238.2s.14.56-1.72,1.41c-2.18,1-5.88,1.67-10.41,1.27-4.48-.4-8.5-1.73-11.17-3.39-2.73-1.69-2.65-2.73-2.59-2.33l-27.69,4.16c1.57,10.48,8.59,17.68,15.54,21.98,7.01,4.34,15.41,6.76,23.43,7.47,7.96.71,16.82-.15,24.57-3.72,8.08-3.71,15.54-10.77,17.57-21.79l-27.54-5.07ZM32.84,235.17c-4.71-31.38-8.39-66.18.92-92.59l-26.41-9.31c-11.97,33.95-6.77,75.57-2.2,106.05l27.69-4.15ZM33.76,142.58c3.36-9.52,9.09-17.01,15.95-20.69l-13.23-24.68c-14.79,7.93-24.21,22.14-29.12,36.05l26.41,9.31ZM49.7,121.88c6.3-3.38,12.6-3.17,18.83-.34,6.59,2.99,12.86,8.92,17.07,16.19l24.23-14.03c-6.67-11.52-17.05-21.9-29.73-27.66-13.03-5.92-28.61-6.9-43.64,1.16l13.23,24.68ZM85.6,137.73c1.61,2.78,5.09,9.5,11.13,14.1l16.95-22.29c-.08-.07-.46-.38-1.17-1.4-.78-1.13-1.47-2.35-2.67-4.43l-24.24,14.02ZM96.76,151.85c6.22,4.71,18.88,8.71,28.99.13l-18.12-21.35c1.86-1.58,3.79-1.7,4.58-1.63.71.06,1.12.27,1.45.52l-16.9,22.32ZM125.76,151.97c6.23-5.3,10.32-12.47,9.99-20.97-.3-7.68-4.15-13.78-7.56-17.84-6.77-8.07-16.93-14.12-22.3-17.04l-13.36,24.61c4.94,2.68,11.05,6.66,14.2,10.42,1.55,1.85,1.08,2.12,1.03.94-.08-2.01,1.15-2.56-.16-1.44l18.15,21.32ZM105.91,96.13c-8.59-4.67-17.78-8.61-27.27-11.48l-8.1,26.8c7.52,2.27,14.95,5.44,21.99,9.27l13.38-24.6ZM78.63,84.65c-7.54-2.28-14.67-2.52-20.68-2.4-6.81.13-10.6.56-15.85.38l-.99,27.98c6.01.21,13.23-.29,17.36-.37,4.92-.09,8.65.18,12.06,1.21l8.09-26.81ZM42.09,82.62c-2.03-.07-3.72-.21-5.22-.47l-4.68,27.61c3.18.54,6.22.75,8.94.84l.96-27.98ZM36.81,82.15c-1.32-.22-2.06-.4-2.5-.56-.4-.14-.21-.14.2.21l-18.21,21.27c5.67,4.85,12.42,6.12,15.94,6.7l4.57-27.62ZM34.51,81.8c.69.59.58.97.29-.05-.32-1.1-.54-2.73-.69-5.25l-27.95,1.63c.17,2.98.52,7.15,1.73,11.34,1.23,4.28,3.59,9.46,8.41,13.59l18.21-21.27ZM34.11,76.51c-.91-15.85.03-31.82,2.8-47.46l-27.57-4.89c-3.15,17.77-4.23,35.93-3.19,53.96l27.95-1.61ZM36.91,29.06c.12-.69.22-1.22.33-1.68.1-.45.18-.73.24-.9.12-.37.04.05-.5.69L15.68,8.98c-4.79,5.61-5.87,12.52-6.34,15.18l27.57,4.9ZM36.9,27.25c-.95,1.09-1.83,1.14-1.16.99.33-.07.88-.15,1.71-.2.83-.05,1.77-.05,2.94-.04L40.71,0c-2.6-.03-6.68-.03-10.84.86-4.32.93-9.78,3.04-14.11,8.03l21.15,18.35ZM40.35,28.01c33.73.49,67.47.98,101.21,1.46l.4-28C108.22.99,74.49.5,40.75,0l-.41,28ZM141.56,29.47c3.33.05,5.69.17,7.57.56.87.18,1.41.37,1.74.52.15.07.25.13.3.16.05.03.06.05.07.05l19.14-20.44c-4.96-4.64-10.74-6.72-15.59-7.72-4.74-.98-9.45-1.09-12.83-1.14l-.39,28ZM146.8,20.54v.02h28v-.02h-28Z"/></g></g></svg>