<?xml version="1.0" encoding="UTF-8"?><svg id="Capa_2" xmlns="http://www.w3.org/2000/svg" viewBox="0 0 746.88 547.96"><defs><style>.cls-1{fill:#ebe6e0;}.cls-2{fill:#da6a2d;}</style></defs><g id="Capa_2-2"><path class="cls-2" d="M361.07,533.46c-8.26,0-16.47-1.09-24.4-3.24-28-7.62-46.67-26.11-53.99-53.48-2.27-8.5-3.22-17.59-2.81-27.01,1.57-35.97,4.03-68.91,7.27-97.85-19.31,23.89-49.36,46.99-94.96,52.61-3.73.46-7.53.69-11.29.69-35.98,0-68.47-20.95-82.78-53.37-.35-.8-.68-1.56-1.01-2.34-.17-.4-.32-.8-.45-1.21-2.88-8.9-3.74-28.21,11.32-44.14,15.27-16.16,40.36-46.37,47.69-55.25.46-.56.95-1.11,1.44-1.63-7.77-2.79-11.34-8.14-12.92-11.75-.11-.25-.21-.51-.31-.76-1.4-3.6-1.76-7.6-1.05-11.61.44-2.39,1.72-9.41,13.72-21.22,1.57-1.55,4.15-3.71,9.37-8.07,9.08-7.58,22.8-19.04,35.14-31.07,8.82-8.6,16.31-17.96,22.32-25.47,6.72-8.4,10.42-13.02,15-15.56,3.52-1.94,7.23-2.93,11.04-2.93,18.66,0,27.96,21.14,38.73,45.63.08.18.16.36.24.54,1.21-20,13.1-38.12,31.07-46.84,13.62-6.61,27.51-9.96,41.28-9.96,3.7,0,7.42.25,11.06.74,18.16,2.44,26.08,11.65,29.52,18.94,1.24,2.62,2.06,5.32,2.54,8.05,9.82-5.71,23.61-10.19,41.7-13.61,19.16-3.61,42.08-5.69,62.86-5.69,29.21,0,37.04,3.98,39.61,5.29,10.7,5.44,17.28,14.72,18.53,26.13.47,4.34.13,8.44-.47,11.93,11.53,8.86,35.44,28.28,44.83,64.75,11.91,46.22,1.1,110.72-64.93,153.12-16.02,10.29-34.44,15.73-53.28,15.73-10.31,0-20.46-1.64-30.17-4.88-13.88-4.62-32.46-14.53-42.72-35.48-.39,26.86,2.64,61.13,14.54,98.45,8.94,28.03-3.37,57.96-29.28,71.18-.68.35-1.37.69-2.06,1.02-13.1,6.29-27.63,9.63-41.95,9.63ZM195.61,244.32c2.09,1.78,3.93,3.87,5.42,6.24,8.12,12.85,18.25,21.84,24.62,21.84.17,0,.34,0,.51-.02,1.05-.25,6.07-1.61,8.53-5.4,2.63-4.07,1.86-10.36.75-14.93-1.28-5.26-3.87-10.33-7.5-14.66l-3.05-3.64c-8.78,3.66-19.14,7.6-29.28,10.56Z"/><path class="cls-1" d="M360.72,122.66c2.98,0,6.03.19,9.13.61,34.74,4.66,14.56,39.85,10.9,45.75-.44.71-.83,1.42-1.2,2.16-3.3,6.64-17.9,39.96-22.87,72.09-1.34,8.7-4.15,18.69-4.6,27.31-.33,6.38,4.57,9.81,9.43,9.81,4.24,0,8.46-2.62,9.12-8.16.27-2.27.4-4.48.45-6.44.18-6.99.84-13.95,2.03-20.84,4.2-24.28,14.46-73.84,30.69-90.96,15.2-16.03,68.42-22.89,104.6-22.89,15.77,0,28.3,1.3,33.05,3.71,15.65,7.95,10.19,23.94,8.59,29.88-1.05,3.9,35.22,18.57,46.83,63.62,9.04,35.09,5.75,95.9-58.72,137.3-13.69,8.8-29.52,13.43-45.45,13.43-8.61,0-17.24-1.35-25.58-4.13-25.37-8.45-49.11-30.23-37.28-84.35,4.03-18.45,14.01-35.2,28.96-46.73,10.53-8.12,24.64-14.77,42.64-14.77.48,0,.97,0,1.46.01,0,0,24.18,1.63,11.14,44.41-1.01,3.33-.62,7,1.37,9.85,1.02,1.46,2.4,2.6,4.22,2.6,2.75,0,6.5-2.6,11.54-10.61,10.16-16.17,13.52-31.94,5.12-46.56-6.76-11.76-19.29-19.03-32.84-19.71-1.54-.08-3.16-.12-4.86-.12-8.49,0-18.79,1.11-29.45,4.86-20.67,7.28-39.63,22.11-56.33,77.67,0,0-21.46,73.07,7.74,164.58,6.68,20.93-2.5,43.88-22.06,53.86-.55.28-1.11.56-1.68.83-11.25,5.4-23.47,8.24-35.74,8.24-6.9,0-13.82-.9-20.6-2.74-17.13-4.66-36.51-16.06-43.78-43.23-1.97-7.37-2.66-15.01-2.33-22.64,1.02-23.4,4.65-100.78,16.57-158.51,0,0,1.81-9.59-.97-9.59-.63,0-1.51.5-2.69,1.72-1.62,1.68-2.76,3.76-3.41,6-4.41,15.06-30.39,89.88-113.45,100.12-3.18.39-6.36.58-9.51.58-29.7,0-57.31-17.07-69.52-44.73-.31-.71-.62-1.43-.93-2.16,0,0-5.11-15.78,8.06-29.72,15.82-16.75,41.93-48.22,48.33-55.97,1.91-2.31,4.35-4.16,7.19-5.13.22-.07.44-.15.67-.21,1.11-.32,2.24-.48,3.36-.48,4.25,0,8.34,2.25,10.69,5.99,4.85,7.67,19.65,28.62,36.89,28.62.89,0,1.78-.06,2.68-.17,0,0,29.41-4.38,21.2-38.11-1.84-7.56-5.47-14.57-10.47-20.54l-4.08-4.87c-2.4-2.86-5.88-4.41-9.45-4.41-1.6,0-3.22.31-4.76.96-12.75,5.38-37.27,14.83-51.96,14.83-5.62,0-9.79-1.38-11.33-4.9h0c-.55-1.26-.62-2.68-.38-4.04.53-2.9,3.96-7.85,9.61-13.41,3.83-3.77,25.75-20.86,44.46-39.09,17.24-16.81,29.63-36.19,34.22-38.73,1.37-.76,2.71-1.11,4.02-1.11,16.06,0,27.72,53.74,46.58,76.35,5.73,6.87,9.06,9.46,10.82,9.46,2.72,0,1.7-6.18.03-12.3-2.55-9.32-3.95-18.91-4.01-28.57l-.06-9.65c-.1-15.84,8.75-30.51,23-37.43,9.56-4.64,21.55-8.51,34.95-8.51M360.72,93.66c-15.98,0-32,3.84-47.61,11.42-10.78,5.24-19.97,13.14-26.79,23-10.01-15.78-22.42-23.78-36.91-23.78-6.29,0-12.36,1.59-18.04,4.73-7.1,3.93-11.7,9.68-19.31,19.2-5.76,7.21-12.94,16.17-21.12,24.15-11.94,11.63-25.4,22.88-34.31,30.32-5.68,4.74-8.27,6.92-10.25,8.87-10.27,10.11-16.09,19.55-17.79,28.86-.01.06-.02.12-.03.18-1.16,6.59-.55,13.22,1.77,19.26.18.48.37.96.58,1.43.94,2.16,2.57,5.24,5.2,8.42-10.48,12.53-27.53,32.64-38.67,44.44-10.08,10.67-15.9,23.85-16.82,38.12-.66,10.13,1.36,17.67,2.26,20.44.26.81.56,1.61.9,2.4.35.82.7,1.63,1.05,2.43.02.03.03.07.05.1,16.63,37.67,54.33,62.02,96.05,62.02,4.35,0,8.74-.27,13.06-.8,23.26-2.87,44.71-10.24,63.75-21.9,3.87-2.37,7.65-4.92,11.31-7.65-1.5,18.79-2.72,38.78-3.63,59.76-.47,10.91.63,21.47,3.29,31.39,8.61,32.18,31.4,54.81,64.18,63.72,9.18,2.49,18.66,3.75,28.21,3.75,16.46,0,33.14-3.83,48.24-11.07.94-.45,1.79-.87,2.34-1.16,15.65-7.99,27.92-21.38,34.57-37.74,6.56-16.13,7.26-34.17,1.95-50.78-6.26-19.61-9.9-38.25-11.89-55.02,6.52,4.16,13.78,7.59,21.66,10.22,11.19,3.73,22.88,5.62,34.75,5.62,21.62,0,42.76-6.24,61.12-18.04,18.02-11.57,33.17-25.29,45-40.76,10.7-13.99,18.75-29.46,23.92-45.99,11.16-35.64,6.17-66.79,2.2-82.18-9.09-35.27-29.89-56.16-43.7-67.6.05-2.25-.02-4.61-.29-7.04-1.8-16.44-11.17-29.76-26.38-37.48-6.29-3.19-17.22-6.86-46.18-6.86-21.64,0-45.53,2.16-65.55,5.94-12.04,2.27-22.47,5.06-31.36,8.41-5.54-8.48-16.56-19.06-37.79-21.91-4.28-.57-8.65-.87-12.99-.87h0ZM219.68,251.44c.06-.02.12-.04.17-.07.09.19.18.37.26.56-.14-.16-.29-.33-.44-.49h0Z"/><path class="cls-2" d="M64.46,378.84c-27.55,0-49.96-22.41-49.96-49.96s22.41-49.96,49.96-49.96,49.96,22.41,49.96,49.96-22.41,49.96-49.96,49.96Z"/><path class="cls-1" d="M64.46,293.42c19.58,0,35.46,15.88,35.46,35.46s-15.88,35.46-35.46,35.46-35.46-15.88-35.46-35.46,15.88-35.46,35.46-35.46M64.46,264.42c-35.54,0-64.46,28.92-64.46,64.46s28.92,64.46,64.46,64.46,64.46-28.92,64.46-64.46-28.92-64.46-64.46-64.46h0Z"/><path class="cls-2" d="M649.99,424.42c-11.76,0-21.19-8.68-28.04-25.79-8.23-20.56-10.46-69.08-13.41-146.55-2.13-55.96-4.55-119.36-10.99-167.64-.05-.26-.09-.53-.12-.8-.1-.69-.2-1.38-.32-2.07-1.1-6.18-3.64-28.02,10.77-45.73,10.98-13.49,28.42-20.67,51.82-21.33,0,0,.43-.01,1.19-.01,8.57,0,37.97,1.49,56.63,20.66,10.14,10.42,15.27,24.44,14.83,40.56-1.33,49-22.5,220.58-52.36,319.64-1.74,5.76-4.26,10.96-7.49,15.48-8.01,11.22-16.67,13.58-22.52,13.58Z"/><path class="cls-1" d="M660.89,29c6.95,0,58.18,1.52,56.97,46.33-1.29,47.44-22.32,218.23-51.75,315.85-1.21,4-2.97,7.83-5.4,11.23-2.67,3.74-6.43,7.52-10.72,7.52s-9.55-4.11-14.58-16.68c-14.49-36.21-9.46-206.45-23.57-311.33h-.01c-.13-.95-.27-1.87-.43-2.8-1.17-6.55-6.5-48.55,48.71-50.11,0,0,.27,0,.78,0M660.89,0h0c-1.05,0-1.62.02-1.62.02-13.79.39-26.12,2.87-36.61,7.37-10.5,4.5-19.26,11-26.02,19.31-18.21,22.38-15.2,49.44-13.8,57.4.08.44.15.92.22,1.43.05.36.1.73.16,1.09,6.33,47.57,8.73,110.48,10.84,166.02,3.1,81.4,5.3,128.56,14.43,151.38,3.77,9.43,8.14,16.69,13.34,22.19,7.74,8.2,17.75,12.71,28.16,12.71,7.58,0,22.11-2.56,34.33-19.67,4.14-5.79,7.36-12.42,9.55-19.68,30.22-100.24,51.63-273.87,52.98-323.46.54-20.12-6-37.78-18.94-51.07C705.29,1.81,670.89,0,660.89,0h0Z"/><path class="cls-2" d="M641.66,528.94c-19.38,0-35.21-8.16-43.41-22.38-7.23-12.53-7.37-28.38-.39-43.49,6.3-13.63,17.82-25.79,32.45-34.23,12.73-7.34,26.54-11.22,39.92-11.22,19.38,0,35.21,8.16,43.41,22.38,14.37,24.92.29,59.06-32.06,77.72-12.73,7.34-26.53,11.23-39.92,11.23Z"/><path class="cls-1" d="M670.24,432.12c13.51,0,25.1,5.16,30.85,15.12,10.16,17.6-1.82,43.53-26.75,57.92-10.82,6.24-22.31,9.28-32.68,9.28-13.51,0-25.1-5.16-30.85-15.12-10.16-17.6,1.82-43.53,26.75-57.92,10.82-6.24,22.31-9.28,32.68-9.28M670.24,403.12h0c-15.93,0-32.24,4.55-47.17,13.17-17.2,9.92-30.83,24.38-38.37,40.71-8.98,19.45-8.62,40.16.99,56.82,5.71,9.9,14.4,17.84,25.13,22.97,9.25,4.42,19.62,6.66,30.84,6.66,15.93,0,32.24-4.55,47.17-13.17,17.2-9.92,30.83-24.38,38.37-40.71,8.98-19.45,8.62-40.16-.99-56.82-5.71-9.9-14.4-17.84-25.13-22.97-9.25-4.42-19.62-6.66-30.84-6.66h0Z"/><path class="cls-2" d="M158.01,230.44c-.55-1.27-.62-2.69-.38-4.05.53-2.9,3.96-7.85,9.61-13.41,3.83-3.77,25.75-20.86,44.46-39.09,17.24-16.81,29.63-36.19,34.22-38.73,18.22-10.07,30.2,50.78,50.6,75.24,14.59,17.48,13.61,7.24,10.85-2.84-2.55-9.32-3.95-18.91-4.01-28.57l-.06-9.65c-.1-15.84,8.75-30.51,23-37.43,11.68-5.67,27-10.19,44.08-7.9,34.74,4.66,14.56,39.85,10.9,45.75-.44.71-.83,1.42-1.2,2.16-3.3,6.64-17.9,39.96-22.87,72.09-1.34,8.7-4.15,18.69-4.6,27.31-.62,11.96,17.12,13.54,18.55,1.65.27-2.27.4-4.48.45-6.44.18-6.99.84-13.95,2.03-20.84,4.2-24.28,14.46-73.84,30.69-90.96,21.82-23.02,122-27.13,137.65-19.18,15.65,7.95,10.19,23.94,8.59,29.88-1.05,3.9,35.22,18.57,46.83,63.62,9.04,35.09,5.75,95.9-58.72,137.3-21.09,13.55-47.24,17.23-71.03,9.3-25.37-8.45-49.11-30.23-37.28-84.35,4.03-18.45,14.01-35.2,28.96-46.73,10.81-8.34,25.4-15.13,44.1-14.76,0,0,24.18,1.63,11.14,44.41-1.01,3.33-.62,7,1.37,9.85,2.57,3.67,7.39,5.3,15.76-8.01,10.16-16.17,13.52-31.94,5.12-46.56-6.76-11.76-19.29-19.03-32.84-19.71-9.24-.46-21.52.24-34.31,4.74-20.67,7.28-39.63,22.11-56.33,77.67,0,0-21.46,73.07,7.74,164.58,6.68,20.93-2.5,43.88-22.06,53.86-.55.28-1.11.56-1.68.83-17.58,8.44-37.52,10.61-56.34,5.5-17.13-4.66-36.51-16.06-43.78-43.23-1.97-7.37-2.66-15.01-2.33-22.64,1.02-23.4,4.65-100.78,16.57-158.51,0,0,2.73-14.47-3.66-7.87-1.62,1.68-2.76,3.76-3.41,6-4.41,15.06-30.39,89.88-113.45,100.12-33.18,4.09-65.53-13.55-79.03-44.14-.31-.71-.62-1.43-.93-2.16,0,0-5.11-15.78,8.06-29.72,15.82-16.75,41.93-48.22,48.33-55.97,1.91-2.31,4.35-4.16,7.19-5.13.22-.07.44-.15.67-.21,5.35-1.56,11.08.79,14.05,5.51,5.1,8.07,21.2,30.81,39.57,28.45,0,0,29.41-4.38,21.2-38.11-1.84-7.56-5.47-14.57-10.47-20.54l-4.08-4.87c-3.47-4.14-9.23-5.54-14.21-3.45-17.63,7.43-57.73,22.65-63.29,9.93h0Z"/><circle class="cls-2" cx="64.99" cy="329.62" r="35.46"/><path class="cls-2" d="M612.36,82.65c-.13-.94-.27-1.86-.43-2.79-1.17-6.55-6.5-48.55,48.71-50.11,0,0,59.05-1.75,57.75,46.32-1.29,47.44-22.32,218.23-51.75,315.85-1.21,4-2.97,7.83-5.4,11.23-5.46,7.65-15.46,15.43-25.3-9.16-14.49-36.21-9.46-206.45-23.57-311.33h-.01Z"/><ellipse class="cls-2" cx="656.48" cy="474.02" rx="52.11" ry="36.8" transform="translate(-149.03 391.46) rotate(-29.98)"/></g></svg>