<?xml version="1.0" encoding="UTF-8"?><svg id="Capa_2" xmlns="http://www.w3.org/2000/svg" viewBox="0 0 367.27 267.18"><defs><style>.cls-1{fill:#a1c3ae;}.cls-2{fill:#ebe6e0;}</style></defs><g id="Capa_2-2"><path class="cls-1" d="M177.27,261.8c-3.96,0-7.89-.52-11.68-1.55-13.27-3.61-22.11-12.36-25.57-25.31-1.08-4.06-1.53-8.4-1.34-12.91.95-21.84,2.56-41.46,4.72-57.97-8.9,13.83-24.7,29.5-51.48,32.8-1.79.22-3.61.33-5.4.33-17.21,0-32.75-10.01-39.59-25.51-.17-.39-.34-.77-.5-1.16-.06-.13-.11-.27-.15-.4-.14-.44-3.39-10.87,5.18-19.94,7.75-8.21,20.42-23.46,24.12-27.94,1.32-1.6,2.93-2.85,4.7-3.67-6.42-.04-9.06-2.99-10.14-5.46-.04-.09-.07-.18-.11-.26-.56-1.43-.71-3.03-.42-4.64.49-2.67,2.59-5.84,6.26-9.45.73-.72,2-1.79,4.58-3.94,4.6-3.84,11.55-9.65,17.83-15.77,4.55-4.43,8.37-9.21,11.44-13.04,3.44-4.3,5.04-6.25,6.87-7.26,1.42-.79,2.92-1.19,4.44-1.19,7.9,0,12.09,9.53,17.4,21.61,1.52,3.47,3.07,6.99,4.68,10.19-.11-1.38-.16-2.76-.17-4.13l-.03-4.86c-.06-9.93,5.59-19.1,14.4-23.38,6.54-3.18,13.2-4.79,19.79-4.79,1.76,0,3.53.12,5.26.35,8.12,1.09,11.6,5.08,13.09,8.24,1.09,2.32,1.44,4.8,1.33,7.26,4.6-3.76,12.48-6.71,23.47-8.78,9.52-1.79,20.9-2.82,31.24-2.82,9.4,0,15.76.81,18.91,2.41,6.79,3.45,9.33,9.52,7.58,18.06.16.13.33.25.48.37,5.75,4.39,17.71,13.53,22.44,31.88,5.8,22.5.51,53.92-31.72,74.61-7.7,4.95-16.55,7.56-25.59,7.56-4.94,0-9.81-.79-14.47-2.34-17.35-5.78-22.78-18.6-23.59-30.76-1.67,14.47-2.15,38.35,6.47,65.37,4.16,13.04-1.56,26.96-13.6,33.1-.33.17-.65.33-.98.48-6.3,3.02-13.27,4.63-20.14,4.63ZM87.43,117.73c2.95.64,5.62,2.48,7.27,5.1,3.52,5.57,9.39,12.08,14.35,12.08.21,0,.43-.01.64-.04.32-.06,3.94-.83,5.83-3.71,1.45-2.2,1.68-5.35.71-9.35-.73-2.99-2.2-5.87-4.25-8.32l-2.05-2.45c-.23-.27-.57-.43-.93-.43-.16,0-.31.03-.46.09-6.22,2.62-14.2,5.61-21.09,7.03ZM248.81,105.78c.08,0,.16,0,.24.01.58.04,5.8.53,9.31,5.62,2.75,3.98,3.54,9.47,2.39,16.37,3.59-7.44,2.05-11.87.45-14.67-2.52-4.38-7.18-7.16-12.46-7.43-.7-.03-1.43-.05-2.2-.05-4.66,0-9.09.73-13.17,2.17-3.93,1.38-8.17,3.4-12.48,8.6.83-.75,1.68-1.46,2.56-2.14,7.3-5.63,15.55-8.48,24.53-8.48.28,0,.55,0,.83,0Z"/><path class="cls-2" d="M177.09,57.18c1.5,0,3.04.1,4.6.31,17.5,2.35,7.33,20.07,5.49,23.04-.22.36-.42.72-.6,1.09-1.66,3.34-9.02,20.13-11.52,36.31-.67,4.38-2.09,9.41-2.32,13.76-.17,3.22,2.3,4.94,4.75,4.94,2.14,0,4.26-1.32,4.6-4.11.14-1.14.2-2.26.23-3.24.09-3.52.42-7.03,1.02-10.5,2.12-12.23,7.28-37.19,15.46-45.82,7.66-8.08,34.46-11.53,52.69-11.53,7.94,0,14.25.66,16.65,1.87,7.88,4,5.13,12.06,4.33,15.05-.53,1.96,17.74,9.35,23.59,32.05,4.55,17.68,2.9,48.31-29.58,69.16-6.9,4.43-14.87,6.77-22.89,6.77-4.33,0-8.68-.68-12.89-2.08-12.78-4.26-24.74-15.23-18.78-42.49,2.03-9.29,7.06-17.73,14.59-23.54,5.3-4.09,12.41-7.44,21.48-7.44.24,0,.49,0,.73,0,0,0,12.18.82,5.61,22.37-.51,1.68-.31,3.53.69,4.96.52.74,1.21,1.31,2.13,1.31,1.38,0,3.27-1.31,5.81-5.34,5.12-8.15,6.81-16.09,2.58-23.45-3.41-5.92-9.72-9.59-16.54-9.93-.78-.04-1.59-.06-2.45-.06-4.27,0-9.46.56-14.83,2.45-10.41,3.67-19.96,11.14-28.37,39.12,0,0-10.81,36.81,3.9,82.9,3.36,10.54-1.26,22.1-11.11,27.13-.28.14-.56.28-.85.42-5.67,2.72-11.82,4.15-18,4.15-3.48,0-6.96-.45-10.37-1.38-8.63-2.35-18.39-8.09-22.05-21.78-.99-3.71-1.34-7.56-1.17-11.4.51-11.79,2.34-50.76,8.35-79.84,0,0,.91-4.83-.49-4.83-.32,0-.76.25-1.36.87-.82.85-1.39,1.89-1.72,3.02-2.22,7.59-15.31,45.27-57.15,50.43-1.6.2-3.2.29-4.79.29-14.96,0-28.87-8.6-35.02-22.53-.16-.36-.31-.72-.47-1.09,0,0-2.57-7.95,4.06-14.97,7.97-8.44,21.12-24.29,24.34-28.19.96-1.16,2.19-2.1,3.62-2.58.11-.04.22-.08.34-.11.56-.16,1.13-.24,1.69-.24,2.14,0,4.2,1.13,5.39,3.02,2.44,3.87,9.9,14.42,18.58,14.42.45,0,.9-.03,1.35-.09,0,0,14.81-2.21,10.68-19.2-.93-3.81-2.76-7.34-5.27-10.35l-2.06-2.45c-1.21-1.44-2.96-2.22-4.76-2.22-.81,0-1.62.16-2.4.48-6.42,2.71-18.77,7.47-26.17,7.47-2.83,0-4.93-.7-5.71-2.47h0c-.28-.63-.31-1.35-.19-2.04.27-1.46,1.99-3.95,4.84-6.75,1.93-1.9,12.97-10.51,22.4-19.69,8.68-8.47,14.93-18.23,17.24-19.51.69-.38,1.36-.56,2.02-.56,8.09,0,13.96,27.07,23.47,38.46,2.89,3.46,4.56,4.76,5.45,4.76,1.37,0,.86-3.11.01-6.19-1.28-4.69-1.99-9.53-2.02-14.39l-.03-4.86c-.05-7.98,4.41-15.37,11.59-18.85,4.81-2.34,10.85-4.29,17.6-4.29M177.09,47.18c-7.35,0-14.74,1.78-21.97,5.29-7.28,3.54-12.76,9.86-15.42,17.34-1.16-2.45-2.34-4.75-3.59-6.81-1.57-2.59-6.36-10.46-15.09-10.46-2.38,0-4.69.61-6.86,1.81-2.78,1.54-4.76,4.02-8.36,8.51-2.98,3.73-6.7,8.37-11.02,12.59-6.14,5.98-13,11.72-17.54,15.51-2.69,2.24-4.02,3.36-4.88,4.21-6.65,6.54-7.41,10.71-7.66,12.08,0,.02,0,.04-.01.06-.44,2.5-.21,5.01.67,7.28.06.17.13.33.2.5.61,1.39,1.98,3.78,4.74,5.67-4.42,5.33-15.61,18.7-22.47,25.96-8.45,8.94-7.94,19.87-6.3,24.92.09.28.19.56.31.83.17.4.34.79.51,1.18,7.65,17.34,24.99,28.53,44.18,28.53,2,0,4.03-.12,6.02-.37,19.78-2.44,33.95-11.17,43.96-21.19-1.22,12.54-2.16,26.36-2.81,41.19-.22,5.03.29,9.88,1.5,14.42,3.9,14.56,14.23,24.8,29.09,28.84,4.23,1.15,8.6,1.73,13,1.73,7.6,0,15.32-1.77,22.3-5.12.37-.17.73-.35,1.08-.53,14.24-7.27,21.01-23.7,16.1-39.08-4.64-14.53-6.55-28.13-7.07-39.73,4.48,5.12,10.46,8.94,17.84,11.39,5.17,1.72,10.56,2.6,16.05,2.6,10.01,0,19.79-2.89,28.3-8.35,34.47-22.13,40.09-55.87,33.86-80.07-4.64-18.02-15.93-28.09-22.3-33.11.17-1.56.23-3.3.03-5.13-.73-6.68-4.56-12.11-10.79-15.27-1.59-.81-5.82-2.96-21.18-2.96-3.91,0-33.34.28-50.95,8.53-.17-.44-.35-.88-.56-1.32-2.02-4.28-6.6-9.68-16.95-11.06-1.95-.26-3.95-.39-5.93-.39h0ZM98.69,119.8c2.86-.96,5.92-2.1,9.18-3.42l.27.32c1.56,1.86,2.68,4.04,3.22,6.29.6,2.47.6,4.44-.01,5.4-.53.84-1.79,1.33-2.4,1.51-1.74-.13-6.08-3.51-10.03-9.76-.07-.12-.15-.24-.23-.35h0ZM109.11,129.9s.03,0,.03,0,0,0-.02,0c0,0,0,0-.01,0h0Z"/><path class="cls-1" d="M27.86,183.91c-12.61,0-22.86-10.26-22.86-22.86s10.26-22.86,22.86-22.86,22.86,10.26,22.86,22.86-10.26,22.86-22.86,22.86Z"/><path class="cls-2" d="M27.86,143.19c9.86,0,17.86,8,17.86,17.86s-8,17.86-17.86,17.86-17.86-8-17.86-17.86,8-17.86,17.86-17.86M27.86,133.19c-15.36,0-27.86,12.5-27.86,27.86s12.5,27.86,27.86,27.86,27.86-12.5,27.86-27.86-12.5-27.86-27.86-27.86h0Z"/><path class="cls-1" d="M322.8,206.88c-7.37,0-10.84-8.69-11.99-11.54-4.21-10.51-5.26-38.11-6.59-73.05-1.08-28.27-2.3-60.29-5.57-84.73-.02-.1-.03-.21-.05-.31-.05-.39-.11-.77-.18-1.15-.51-2.88-1.7-13.02,4.94-21.18,5.09-6.25,13.29-9.59,24.38-9.9h0s.19,0,.53,0c4.09,0,18.1.7,26.88,9.71,4.73,4.86,7.02,11.17,6.82,18.76-.67,24.59-11.29,110.69-26.28,160.41-.81,2.66-1.96,5.05-3.44,7.12-3.47,4.86-7.06,5.88-9.47,5.88Z"/><path class="cls-2" d="M328.29,10c3.51,0,29.31.77,28.7,23.34-.65,23.9-11.24,109.93-26.07,159.1-.61,2.01-1.5,3.94-2.72,5.66-1.35,1.88-3.24,3.79-5.4,3.79s-4.81-2.07-7.34-8.4c-7.3-18.24-4.77-103.99-11.87-156.82h0c-.07-.48-.14-.94-.22-1.41-.59-3.3-3.27-24.46,24.54-25.24,0,0,.14,0,.39,0M328.29,0c-.45,0-.69,0-.69,0-12.6.36-22.06,4.31-28.11,11.74-7.95,9.78-6.6,21.73-5.98,25.22.05.31.1.61.14.92.02.15.04.29.06.43,3.23,24.19,4.44,56.04,5.51,84.15,1.5,39.31,2.63,63.95,6.94,74.72,3.9,9.74,9.49,14.68,16.63,14.68,3.58,0,8.83-1.38,13.54-7.98,1.79-2.51,3.19-5.39,4.15-8.57,15.11-50.12,25.82-136.93,26.49-161.72.24-8.86-2.61-16.6-8.23-22.38-10.14-10.42-25.88-11.22-30.46-11.22h0Z"/><path class="cls-1" d="M318.61,259.52c-8.92,0-16.16-3.69-19.87-10.12-3.31-5.73-3.34-12.76-.1-19.79,2.97-6.44,8.44-12.2,15.41-16.21,6.06-3.5,12.62-5.35,18.96-5.35,8.92,0,16.16,3.69,19.87,10.12,3.31,5.73,3.34,12.76.1,19.79-2.97,6.44-8.45,12.2-15.4,16.21-6.06,3.5-12.62,5.35-18.96,5.35Z"/><path class="cls-2" d="M333,213.06c6.8,0,12.65,2.6,15.54,7.62,5.12,8.87-.92,21.93-13.47,29.17-5.45,3.15-11.24,4.68-16.46,4.68-6.8,0-12.65-2.6-15.54-7.62-5.12-8.87.92-21.93,13.47-29.17,5.45-3.15,11.24-4.68,16.46-4.68M333,203.06h0c-7.22,0-14.64,2.08-21.46,6.01-17.61,10.16-25.14,28.97-17.14,42.83,4.63,8.02,13.45,12.62,24.2,12.62,7.22,0,14.64-2.08,21.46-6.01,17.61-10.16,25.13-28.97,17.14-42.83-4.63-8.02-13.45-12.62-24.2-12.62h0Z"/><path class="cls-1" d="M177.53,262.18c-3.96,0-7.89-.52-11.69-1.55-13.27-3.61-22.11-12.36-25.57-25.31-1.08-4.05-1.54-8.4-1.34-12.91.95-21.84,2.56-41.46,4.72-57.98-8.9,13.83-24.7,29.5-51.48,32.8-1.79.22-3.61.33-5.4.33-17.21,0-32.75-10.01-39.59-25.51-.17-.39-.33-.77-.5-1.15-.06-.14-.11-.27-.16-.42-.14-.44-3.39-10.87,5.18-19.94,7.75-8.2,20.42-23.46,24.12-27.94,1.32-1.6,2.93-2.85,4.7-3.67-6.42-.04-9.06-2.99-10.14-5.46-.04-.09-.08-.18-.11-.28-.55-1.42-.7-3.02-.42-4.62.49-2.68,2.59-5.85,6.26-9.45.73-.72,2-1.79,4.58-3.94,4.6-3.84,11.55-9.65,17.83-15.77,4.54-4.43,8.36-9.21,11.43-13.04,3.44-4.3,5.04-6.25,6.88-7.26,1.42-.79,2.92-1.19,4.44-1.19,7.9,0,12.09,9.54,17.4,21.61,1.52,3.47,3.07,6.99,4.68,10.19-.11-1.38-.16-2.76-.17-4.13l-.03-4.86c-.06-9.93,5.59-19.1,14.4-23.38,6.55-3.18,13.2-4.79,19.79-4.79,1.76,0,3.53.12,5.26.35,8.12,1.09,11.6,5.08,13.09,8.24,1.09,2.32,1.44,4.8,1.33,7.26,4.6-3.76,12.48-6.71,23.47-8.78,9.52-1.79,20.9-2.82,31.24-2.82,9.4,0,15.76.81,18.91,2.41,6.79,3.45,9.33,9.52,7.58,18.06.16.13.33.25.48.37,5.75,4.39,17.71,13.53,22.44,31.88,5.8,22.5.51,53.92-31.72,74.62-7.7,4.95-16.55,7.56-25.59,7.56-4.94,0-9.81-.79-14.47-2.34-17.34-5.78-22.78-18.6-23.59-30.76-1.67,14.47-2.15,38.36,6.47,65.37,4.16,13.04-1.56,26.96-13.6,33.1-.32.16-.64.33-.98.48-6.3,3.02-13.27,4.63-20.14,4.63ZM87.7,118.1c2.95.64,5.62,2.48,7.27,5.1,3.52,5.57,9.39,12.08,14.35,12.08.21,0,.43-.01.64-.04.32-.06,3.93-.83,5.83-3.71,1.45-2.2,1.68-5.35.71-9.35-.73-2.99-2.2-5.87-4.25-8.32l-2.05-2.45c-.23-.27-.57-.43-.93-.43-.16,0-.32.03-.46.09-6.22,2.62-14.2,5.61-21.09,7.03ZM249.08,106.15c.08,0,.16,0,.24.01.58.04,5.8.53,9.31,5.62,2.75,3.98,3.54,9.47,2.39,16.37,3.59-7.44,2.05-11.87.45-14.66-2.52-4.38-7.18-7.16-12.46-7.43-.7-.03-1.43-.05-2.2-.05-4.66,0-9.09.73-13.17,2.17-3.93,1.39-8.18,3.4-12.48,8.6.83-.75,1.68-1.46,2.56-2.14,7.29-5.63,15.55-8.48,24.53-8.48.28,0,.55,0,.83,0Z"/><path class="cls-2" d="M177.36,57.55c1.5,0,3.04.1,4.6.31,17.5,2.35,7.33,20.07,5.49,23.04-.22.36-.42.72-.6,1.09-1.66,3.34-9.02,20.13-11.52,36.31-.67,4.38-2.09,9.41-2.32,13.76-.17,3.22,2.3,4.94,4.75,4.94,2.14,0,4.26-1.32,4.6-4.11.14-1.14.2-2.26.23-3.24.09-3.52.42-7.03,1.02-10.5,2.12-12.23,7.28-37.19,15.46-45.82,7.66-8.08,34.46-11.53,52.69-11.53,7.94,0,14.25.66,16.65,1.87,7.88,4,5.13,12.06,4.33,15.05-.53,1.96,17.74,9.35,23.59,32.05,4.55,17.68,2.9,48.31-29.58,69.16-6.9,4.43-14.87,6.77-22.89,6.77-4.33,0-8.68-.68-12.89-2.08-12.78-4.26-24.74-15.23-18.78-42.49,2.03-9.29,7.06-17.73,14.59-23.54,5.3-4.09,12.41-7.44,21.48-7.44.24,0,.49,0,.73,0,0,0,12.18.82,5.61,22.37-.51,1.68-.31,3.53.69,4.96.52.74,1.21,1.31,2.13,1.31,1.38,0,3.27-1.31,5.81-5.34,5.12-8.15,6.81-16.09,2.58-23.45-3.41-5.92-9.72-9.59-16.54-9.93-.78-.04-1.59-.06-2.45-.06-4.27,0-9.46.56-14.83,2.45-10.41,3.67-19.96,11.14-28.37,39.12,0,0-10.81,36.81,3.9,82.9,3.36,10.54-1.26,22.1-11.11,27.13-.28.14-.56.28-.85.42-5.67,2.72-11.82,4.15-18.01,4.15-3.48,0-6.96-.45-10.37-1.38-8.63-2.35-18.39-8.09-22.05-21.78-.99-3.71-1.34-7.56-1.17-11.4.51-11.79,2.34-50.76,8.35-79.84,0,0,.91-4.83-.49-4.83-.32,0-.76.25-1.36.87-.82.85-1.39,1.89-1.72,3.02-2.22,7.59-15.31,45.27-57.15,50.43-1.6.2-3.2.29-4.79.29-14.96,0-28.87-8.6-35.02-22.53-.16-.36-.31-.72-.47-1.09,0,0-2.57-7.95,4.06-14.97,7.97-8.44,21.12-24.29,24.34-28.19.96-1.16,2.19-2.1,3.62-2.58.11-.04.22-.08.34-.11.56-.16,1.13-.24,1.69-.24,2.14,0,4.2,1.13,5.39,3.02,2.44,3.87,9.9,14.42,18.58,14.42.45,0,.9-.03,1.35-.09,0,0,14.81-2.21,10.68-19.2-.93-3.81-2.76-7.34-5.27-10.35l-2.06-2.45c-1.21-1.44-2.96-2.22-4.76-2.22-.81,0-1.62.16-2.4.48-6.42,2.71-18.77,7.47-26.17,7.47-2.83,0-4.93-.7-5.71-2.47h0c-.28-.63-.31-1.35-.19-2.04.27-1.46,1.99-3.95,4.84-6.75,1.93-1.9,12.97-10.51,22.4-19.69,8.68-8.47,14.93-18.23,17.24-19.51.69-.38,1.36-.56,2.02-.56,8.09,0,13.96,27.07,23.47,38.46,2.89,3.46,4.56,4.76,5.45,4.76,1.37,0,.86-3.11.01-6.19-1.28-4.69-1.99-9.53-2.02-14.39l-.03-4.86c-.05-7.98,4.41-15.37,11.59-18.85,4.81-2.34,10.85-4.29,17.6-4.29M177.36,47.55c-7.35,0-14.74,1.78-21.97,5.29-7.28,3.54-12.76,9.86-15.42,17.34-1.16-2.45-2.34-4.75-3.59-6.81-1.57-2.59-6.36-10.46-15.09-10.46-2.38,0-4.69.61-6.86,1.81-2.78,1.54-4.76,4.02-8.36,8.51-2.98,3.73-6.7,8.37-11.02,12.59-6.14,5.98-13,11.72-17.54,15.51-2.69,2.24-4.02,3.36-4.88,4.21-6.65,6.54-7.41,10.71-7.66,12.08,0,.02,0,.04-.01.06-.44,2.5-.21,5.01.67,7.28.06.17.13.33.2.5.61,1.39,1.98,3.78,4.74,5.67-4.42,5.33-15.61,18.7-22.47,25.96-8.45,8.94-7.94,19.87-6.3,24.92.09.28.19.56.31.83.17.4.34.79.51,1.18,7.65,17.34,24.99,28.53,44.18,28.53,2,0,4.03-.12,6.02-.37,19.78-2.44,33.95-11.17,43.96-21.19-1.22,12.54-2.16,26.36-2.81,41.19-.22,5.03.29,9.88,1.5,14.42,3.9,14.56,14.23,24.8,29.09,28.84,4.23,1.15,8.6,1.73,13,1.73,7.61,0,15.32-1.77,22.31-5.12.36-.17.72-.35,1.08-.53,14.24-7.27,21.01-23.7,16.1-39.08-4.64-14.53-6.55-28.13-7.07-39.73,4.48,5.12,10.46,8.94,17.84,11.39,5.17,1.72,10.56,2.6,16.05,2.6,10.01,0,19.79-2.89,28.3-8.35,34.47-22.13,40.09-55.87,33.86-80.07-4.64-18.02-15.93-28.09-22.3-33.11.17-1.56.23-3.3.03-5.13-.73-6.68-4.56-12.11-10.79-15.27-1.59-.81-5.82-2.96-21.18-2.96-3.91,0-33.34.28-50.95,8.53-.17-.44-.35-.88-.56-1.32-2.02-4.28-6.6-9.68-16.95-11.06-1.95-.26-3.95-.39-5.93-.39h0ZM98.96,120.17c2.86-.96,5.92-2.1,9.18-3.42l.27.32c1.56,1.86,2.68,4.04,3.22,6.29.6,2.47.6,4.44-.01,5.4-.53.84-1.79,1.33-2.4,1.51-1.74-.13-6.08-3.51-10.03-9.76-.07-.12-.15-.24-.23-.35h0ZM109.38,130.28s.03,0,.03,0,0,0-.02,0c0,0,0,0-.01,0h0Z"/><path class="cls-1" d="M28.13,184.29c-12.61,0-22.86-10.26-22.86-22.86s10.26-22.86,22.86-22.86,22.86,10.26,22.86,22.86-10.26,22.86-22.86,22.86Z"/><path class="cls-2" d="M28.13,143.57c9.86,0,17.86,8,17.86,17.86s-8,17.86-17.86,17.86-17.86-8-17.86-17.86,8-17.86,17.86-17.86M28.13,133.57c-15.36,0-27.86,12.5-27.86,27.86s12.5,27.86,27.86,27.86,27.86-12.5,27.86-27.86-12.5-27.86-27.86-27.86h0Z"/><path class="cls-1" d="M323.07,207.25c-7.37,0-10.84-8.69-11.99-11.54-4.21-10.51-5.26-38.11-6.59-73.05-1.08-28.27-2.3-60.29-5.57-84.73-.02-.1-.03-.21-.05-.31-.05-.38-.11-.76-.18-1.14-.52-2.89-1.7-13.04,4.94-21.2,5.09-6.25,13.29-9.58,24.38-9.9h0s.19,0,.53,0c4.09,0,18.11.7,26.88,9.71,4.73,4.86,7.02,11.17,6.82,18.76-.67,24.59-11.29,110.69-26.28,160.41-.8,2.66-1.96,5.05-3.44,7.12-3.47,4.86-7.06,5.88-9.47,5.88Z"/><path class="cls-2" d="M328.56,10.37c3.5,0,29.31.76,28.7,23.34-.65,23.9-11.24,109.93-26.07,159.1-.61,2.01-1.5,3.94-2.72,5.66-1.35,1.88-3.24,3.79-5.4,3.79s-4.81-2.07-7.34-8.4c-7.3-18.24-4.77-103.99-11.87-156.82h0c-.07-.48-.14-.94-.22-1.41-.59-3.3-3.27-24.46,24.54-25.24,0,0,.14,0,.39,0M328.56.37c-.45,0-.69,0-.69,0-12.6.36-22.06,4.31-28.11,11.74-7.95,9.78-6.6,21.73-5.98,25.22.05.31.1.61.14.92.02.15.04.29.06.43,3.23,24.19,4.44,56.04,5.51,84.15,1.5,39.31,2.63,63.95,6.94,74.72,3.9,9.74,9.49,14.68,16.63,14.68,3.58,0,8.83-1.38,13.54-7.98,1.79-2.51,3.19-5.39,4.15-8.57,15.11-50.13,25.82-136.93,26.49-161.72.24-8.86-2.61-16.6-8.23-22.38-10.14-10.42-25.88-11.22-30.46-11.22h0Z"/><path class="cls-1" d="M318.87,259.9c-8.92,0-16.16-3.69-19.87-10.12-6.59-11.43.13-27.25,15.31-36,6.06-3.5,12.62-5.35,18.96-5.35,8.92,0,16.16,3.69,19.87,10.12,6.59,11.43-.13,27.25-15.31,36-6.06,3.5-12.62,5.35-18.96,5.35Z"/><path class="cls-2" d="M333.27,213.43c6.8,0,12.65,2.6,15.54,7.62,5.12,8.87-.92,21.93-13.47,29.17-5.45,3.15-11.24,4.68-16.46,4.68-6.8,0-12.65-2.6-15.54-7.62-5.12-8.87.92-21.93,13.47-29.17,5.45-3.15,11.24-4.68,16.46-4.68M333.27,203.43h0c-7.22,0-14.64,2.08-21.46,6.01-17.61,10.16-25.13,28.97-17.14,42.83,4.63,8.02,13.45,12.62,24.2,12.62,7.22,0,14.64-2.08,21.46-6.01,17.61-10.16,25.13-28.97,17.14-42.83-4.63-8.02-13.45-12.62-24.2-12.62h0Z"/></g></svg>