<?xml version="1.0" encoding="UTF-8"?><svg id="Capa_2" xmlns="http://www.w3.org/2000/svg" viewBox="0 0 807.47 506.16"><defs><style>.cls-1{fill:#a1c3ae;}.cls-2{fill:#efede4;}</style></defs><g id="Capa_2-2"><path class="cls-2" d="M803.8,193.35c-6.24-29.11-20.21-56.5-40.4-79.18-8.02-9.02-16.57-17.14-25.56-24.25,7.63-14.83,6.31-28.44,4.31-36.44-4.04-16.15-15.25-29.16-30.76-35.71-6.74-2.85-13.9-4.3-21.26-4.3-9.23,0-18.3,2.33-26.31,6.73-13.14-12.86-30.85-20.2-49.86-20.2-37.6,0-68.52,29.15-71.35,66.04-5.39,2.32-10.34,4.89-14.78,7.7-13.2,8.34-21.02,22.68-20.9,38.34.1,15.58,8.06,29.72,21.27,37.82,8.34,5.11,17.46,8.34,25.97,10.37l-6.37,59.35c-15.94-41.16-51.87-93.12-132.57-127.88-12.06-5.2-25.04-9.95-38.6-14.11-26.48-8.1-53.68-12.21-80.85-12.21-29.73,0-58.77,4.9-86.3,14.55-7.56,2.65-15.07,5.69-22.08,8.93-.97.43-1.96.89-2.84,1.32-51.75,24.6-87.67,63.23-104.82,112.4-8.72-3.25-17.09-7.38-25.02-12.34l-7.68-4.8c-4.93-3.08-10.57-4.71-16.31-4.71-6.13,0-12.09,1.84-17.2,5.3-10.06,6.79-15.19,18.9-13.07,30.85,4.4,24.77,20.49,48.08,46.52,67.42,10.95,8.14,21.44,13.95,28.25,17.37,4.44,6.92,10.7,12.46,18.16,16.04-13.25,19.61-27.68,45.05-37.68,74.19-9.31,27.28,2.29,57.38,27.61,71.58,20.9,11.69,43.37,19.35,66.75,22.77,2.89.43,5.85.66,8.82.66,6.28,0,12.45-.99,18.35-2.92,7.17,6.95,16,12.13,25.61,14.83,17.24,4.84,34.98,7.29,52.7,7.29,5.83,0,11.74-.27,17.58-.8,16.56-1.52,31.04-9.75,40.92-21.84,9.84,10.56,23.33,17.41,37.96,18.92,6.72.69,13.54,1.04,20.29,1.04,16.88,0,33.71-2.21,50.04-6.56,4.6-1.23,9.05-3.02,13.23-5.31,8.58,4.53,18.19,6.94,28.05,6.94l1.6-.02c23.48-.58,47.36-5.61,69.06-14.52,29.2-12.03,44.08-44.99,33.88-75.05-4.59-13.49-11.51-31.31-21.37-50.85,13.42,2.11,26.74,3.17,39.9,3.17,33.01,0,64.94-6.51,94.9-19.36,38.11-16.34,63.52-38.55,74.79-49.74,28.07-5.11,49.43-29,50.9-58.3.63-13.1-.55-26.74-3.5-40.53Z"/><path class="cls-1" d="M198.36,352.55c.03-.1.07-.21.11-.31,2.58-6.36,5.3-12.51,8.11-18.38-30.07-6.03-55.76-13.68-75.3-20.48-13.48,17.05-35.75,48.91-49.04,87.63-4.94,14.49,1.28,30.5,14.79,38.08,17.9,10.01,37.13,16.57,57.18,19.51,8.59,1.28,17.2-1.03,24.07-6.33-1.32-4.84-1.81-9.91-1.34-14.87,2.55-27.29,9.76-55.84,21.42-84.84Z"/><path class="cls-1" d="M388.72,278.75c-1.15-75.44-25.78-121.65-33.06-133.68-17.29,5.55-35.47,8.44-54.14,8.44s-38.86-3.3-57.17-9.56c-8.67,10.52-41.69,55.28-44.62,128.41,6.92,1.26,14.12,2.45,21.6,3.55,43.1,6.31,100.8,10.1,167.4,2.83Z"/><path class="cls-1" d="M244.92,133.46c17.91,6.47,36.95,9.81,56.59,9.81s36.92-3.06,54.14-8.98c.37-.17.75-.3,1.14-.38,13.73-4.83,26.81-11.49,39-19.91-.03-.01-.06-.03-.1-.04-.14-.06-.29-.11-.43-.16-2.46-.97-4.96-1.92-7.49-2.85-.84-.31-1.69-.61-2.53-.92-1.94-.7-3.9-1.39-5.88-2.06-.86-.29-1.71-.59-2.58-.87-2.76-.92-5.53-1.82-8.35-2.68-3.25-.99-6.51-1.91-9.77-2.77-1.05-.27-2.1-.51-3.15-.78-2.23-.56-4.46-1.1-6.7-1.59-1.24-.27-2.48-.52-3.72-.77-2.07-.42-4.13-.83-6.2-1.2-1.29-.23-2.58-.45-3.86-.66-2.05-.33-4.11-.64-6.16-.92-1.27-.17-2.53-.35-3.8-.5-2.15-.26-4.3-.48-6.45-.68-1.15-.11-2.31-.23-3.46-.33-2.56-.2-5.11-.35-7.67-.48-.73-.04-1.46-.1-2.2-.12-3.33-.13-6.66-.2-9.98-.19-.25,0-.5,0-.75,0-3,.02-6,.09-8.99.22-.45.02-.9.03-1.35.05-3.06.15-6.1.36-9.14.63-.57.05-1.14.1-1.71.16-3.09.29-6.17.63-9.24,1.04-.2.03-.39.06-.59.09-2.97.41-5.92.88-8.86,1.4-.48.08-.95.16-1.43.25-2.97.54-5.93,1.15-8.88,1.81-.57.13-1.13.26-1.69.39-3,.7-6,1.44-8.97,2.25-.16.04-.31.09-.47.14-2.88.8-5.74,1.67-8.59,2.58-.5.16-1,.31-1.49.47-2.85.93-5.69,1.93-8.5,2.98-.55.2-1.09.42-1.64.63-2.88,1.1-5.75,2.24-8.59,3.46-.02.01-.05.02-.07.03,12.3,8.87,25.54,15.91,39.47,21.05.37.09.72.22,1.07.38Z"/><path class="cls-1" d="M158.12,273.92c-30.13-7.52-51.14-15.26-61.08-19.26-.68,7.42-1,15.06-.93,22.94h0c.06,6.67,4.04,12.65,10.14,15.23,9.05,3.83,22.9,9.27,40.55,14.94,3.58-15.27,8.33-27.19,11.32-33.85Z"/><path class="cls-1" d="M219.44,285.99c-18.9-2.78-36.01-6.13-51.15-9.63-2.67,5.76-7.92,18.21-11.67,34.46,16.83,5.07,36.52,10.14,58.47,14.27,20.76,3.91,41.6,6.53,62.15,7.94-1.14-17.53,1.73-32.8,3.77-40.99-22.76-1.18-43.45-3.38-61.56-6.04Z"/><path class="cls-1" d="M591.19,71.51c17.35-2.51,33.54-8.07,48.1-16.53l11.46-6.65c-7.92-12.62-21.61-20.31-36.78-20.31-24.01,0-43.54,19.53-43.54,43.54,0,1.32.09,2.64.21,3.95,6.36-1.58,13.18-2.93,20.55-4Z"/><path class="cls-1" d="M39.89,214.06l-7.69-4.81c-1.36-.85-2.54-.24-2.98.05-.44.3-1.44,1.17-1.17,2.73,5.87,33.04,41.49,55.11,57.82,63.63,0-9.73.56-19.17,1.7-28.29-.01-.51.06-1.02.2-1.53.49-3.7,1.06-7.35,1.73-10.95l-3.87-1.03c-16.17-4.29-31.56-10.95-45.74-19.82Z"/><path class="cls-1" d="M398.95,277.56c40.03-4.99,83.09-14.03,128-28.9-.27-3.03-.84-6.06-1.79-9.05-11.61-36.57-41.61-87.03-118.33-120.95-12.85,9.56-26.68,17.25-41.27,22.93,9.05,15.32,32.07,61.45,33.39,135.96Z"/><path class="cls-1" d="M217.02,335.85c-3.1,6.33-6.11,13.02-8.95,19.99-.03.09-.07.18-.1.27-11.36,28.17-18.37,55.84-20.83,82.24-.45,4.66.19,9.45,1.82,13.85,3.6,9.56,11.63,16.92,21.49,19.69,19.69,5.53,39.94,7.39,60.15,5.57,16.77-1.54,29.54-16.04,29.08-33.01-.7-24.53-4.33-61.66-17.35-100.77-21.5-1.22-43.45-3.86-65.3-7.82Z"/><path class="cls-1" d="M584.78,118.68c-4.75.9-7.84,1.38-8.46,1.48-.26.04-.52.06-.78.06-2.49,0-4.67-1.82-5.06-4.35-.42-2.8,1.5-5.41,4.3-5.83.72-.11,62.71-9.77,94.72-32.83.1-.06.19-.14.28-.2,4.7-3.41,8.75-7.12,11.83-11.13,1.72-2.24,4.94-2.67,7.18-.94,2.24,1.72,2.66,4.94.93,7.18-1.95,2.54-4.24,4.94-6.75,7.25,7.04,2.45,13.96,5.51,20.69,9.17,10.1-8.93,13.81-18.2,11.3-28.26-1.88-7.52-7.16-13.61-14.48-16.71-7.66-3.24-16.52-2.69-23.69,1.47l-32.37,18.8c-15.7,9.12-33.12,15.11-51.78,17.81-21.41,3.1-38.18,8.41-49.85,15.78-4.96,3.13-7.89,8.54-7.85,14.47.04,5.84,2.99,11.12,7.9,14.12,11.54,7.08,26.8,8.89,33.71,9.35,2.02-5.9,4.79-11.5,8.21-16.69Z"/><path class="cls-1" d="M234.21,140.14c-14.37-5.91-27.96-13.71-40.36-23.24-51.21,25.17-82.49,63.68-93.38,114.84-.03.25-.05.49-.12.74-.02.06-.04.11-.06.16-.78,3.75-1.46,7.56-2.02,11.44,10.25,4.22,42.86,16.71,91.28,26.35,3.21-70.94,32.87-115.32,44.67-130.29Z"/><path class="cls-1" d="M742.48,132.79c-12.41-13.95-26.11-25.26-40.73-33.62-9.2-5.29-18.79-9.32-28.54-12.12-21.19,14.33-51.57,23.34-72.67,28.29-7.2,7.47-12.51,16.67-15.34,26.7-.94,3.34-1.61,6.82-1.99,10.32l-9.2,85.69c-2.9,27.15-22.82,49.07-48.72,55.01v32.04c50.53,13.67,99.07,10.76,144.86-8.75,31.47-13.41,53.43-31.66,64.11-41.79-31.2-4.48-56.64-24.26-66.66-33.11-4.17,5.1-9.9,8.99-16.75,10.76-.43.11-.86.16-1.28.16-2.28,0-4.36-1.53-4.96-3.84-.71-2.74.94-5.53,3.68-6.24,11.64-3,18.67-14.92,15.66-26.56-.71-2.74.94-5.53,3.68-6.24,2.75-.7,5.53.94,6.24,3.68,1.7,6.6,1.19,13.26-1.04,19.2,8.48,7.68,37.43,31.54,71.13,32.82,18.48.81,34.42-13.95,35.36-32.67.51-10.68-.47-21.88-2.91-33.31-5.23-24.39-16.96-47.36-33.93-66.43ZM684.4,166.13c-.91.53-2.29,1.08-4.09,1.08-2.07,0-4.68-.73-7.75-3.08-3.02-2.31-6-5.86-8.38-9.98-5.28-9.14-6.02-17.68-2.19-21.95-2.86-2.36-5.47-3.85-7.15-3.65-1.32.17-2.38,2.65-2.78,3.71-1,2.65-3.95,3.99-6.6,3-2.65-1-3.99-3.95-3-6.6,2.88-7.69,7.61-9.83,11.07-10.27,11.58-1.49,24.06,14.86,27,18.96,1.26,1.55,2.47,3.32,3.6,5.28,2.38,4.12,3.97,8.48,4.45,12.25.93,7.16-2.23,10.12-4.19,11.25ZM716.6,150.82c-1.03.85-2.8,1.86-5.38,1.86-1.8,0-4-.49-6.63-1.88-3.36-1.78-6.88-4.78-9.91-8.46-1.27-1.54-2.37-3.15-3.34-4.76-.03-.04-.07-.07-.1-.11-2.41-3.53-14.13-21.7-8.53-32.29,1.63-3.08,5.29-6.76,13.5-6.76h0c2.83,0,5.12,2.29,5.12,5.12,0,2.83-2.29,5.12-5.12,5.13-1.13,0-3.83.13-4.45,1.3-.79,1.49-.31,4.47.91,8,2.14-.86,5.38-1.13,9.88,1.26,3.36,1.78,6.89,4.78,9.91,8.46,3.03,3.68,5.31,7.71,6.41,11.35,2.09,6.91-.53,10.35-2.28,11.79ZM738.18,240.59c-4.94,0-8.96-4.02-8.96-8.96s4.02-8.96,8.96-8.96,8.96,4.02,8.96,8.96-4.02,8.96-8.96,8.96ZM761.23,227.78c-4.94,0-8.96-4.02-8.96-8.96s4.02-8.96,8.96-8.96,8.96,4.02,8.96,8.96-4.02,8.96-8.96,8.96Z"/><path class="cls-1" d="M444.3,280.75l2.42,33.28c7.8-2.47,15.68-5.21,23.49-8.21,10.81-4.13,21.72-8.85,32.42-14.04,13.06-6.34,21.69-18.65,23.93-32.25-28.25,9.18-55.77,16.13-82.27,21.21Z"/><path class="cls-1" d="M436.66,317.04l-2.5-34.42c-13.14,2.32-26.01,4.18-38.59,5.66-.52.18-1.07.3-1.66.3h-.01c-.15,0-.3-.03-.45-.04-27.4,3.14-53.37,4.44-77.5,4.44-8.4,0-16.55-.17-24.5-.46-1.83,6.86-5.33,22.96-3.92,41.21,15.2.73,30.44.79,45.33.15,35.74-1.55,70.62-7.24,103.79-16.84Z"/><path class="cls-1" d="M471.83,316.15c-9.43,3.56-18.94,6.79-28.29,9.59,0,0,0,0,0,0-.05.01-.09.03-.14.04-9.6,2.87-19.35,5.39-29.21,7.62,4.71,8.97,9.14,18.36,13.16,28.07,0,.01,0,.02.01.03,0,0,0,.01,0,.02.04.1.08.19.11.29,9,21.81,15.97,44.87,20.75,68.56,2.23,11.14-.02,22.51-6.18,31.85,6.12,5.54,14.14,8.57,22.5,8.31,14.02-.35,35.66-2.79,59.11-12.42,15.57-6.41,23.48-24.04,18.03-40.12-7.97-23.43-22.6-58.32-47.03-92.16-7.46-2.82-15.06-6.05-22.8-9.68Z"/><path class="cls-1" d="M417.89,365.45c-.04-.09-.07-.18-.1-.28-4.26-10.27-8.98-20.17-14.02-29.54-21.76,4.35-44.08,7.09-66.74,8.26-1.49,5.33-2.89,10.94-4.16,16.78-.01.07-.03.15-.04.22-6.42,29.75-8.63,58.2-6.58,84.58.36,4.68,1.8,9.3,4.15,13.36,5.15,8.81,14.31,14.7,24.5,15.75,20.38,2.09,40.65.51,60.24-4.72,6.39-1.7,12.01-5.31,16.25-10.43,6.24-7.55,8.72-17.42,6.79-27.05-4.66-23.13-11.48-45.65-20.28-66.92Z"/></g></svg>